# This file uses centimeters as units for non-parametric coordinates.

mtllib Aperture_Table.mtl
g default
v -2.864246 3.000000 5.297893
v 2.864246 3.000000 5.297893
v -2.864246 3.095430 5.297893
v 2.864246 3.095430 5.297893
v -2.864246 3.188440 4.822077
v 2.864246 3.188440 -4.822077
v 2.864246 3.000000 -5.297893
v 2.864246 3.188440 4.822077
v 2.400355 3.135293 5.297893
v 2.400355 3.188440 4.822077
v -2.400355 3.135293 5.297893
v -2.400355 3.188440 4.822077
v -2.864246 3.000000 -5.297893
v -2.864246 3.095430 -5.297893
v 2.864246 3.095430 -5.297893
v -2.864246 3.188440 -4.822077
v 2.400355 3.135293 -5.297893
v 2.400355 3.188440 -4.822077
v -2.400355 3.135293 -5.297893
v -2.400355 3.188440 -4.822077
v 2.946893 0.000000 5.242874
v 2.896893 0.000000 5.206547
v 2.835090 0.000000 5.206547
v 2.785090 0.000000 5.242874
v 2.765991 0.000000 5.301653
v 2.785090 0.000000 5.360432
v 2.835090 0.000000 5.396759
v 2.896893 0.000000 5.396759
v 2.946893 0.000000 5.360432
v 2.965991 0.000000 5.301653
v 2.946893 3.000000 5.242874
v 2.896893 3.000000 5.206547
v 2.835090 3.000000 5.206547
v 2.785090 3.000000 5.242874
v 2.765991 3.000000 5.301653
v 2.785090 3.000000 5.360432
v 2.835090 3.000000 5.396759
v 2.896893 3.000000 5.396759
v 2.946893 3.000000 5.360432
v 2.965991 3.000000 5.301653
v 2.865991 0.000000 5.301653
v 2.865991 3.000000 5.301653
v -2.785098 0.000000 5.242874
v -2.835098 0.000000 5.206547
v -2.896902 0.000000 5.206547
v -2.946902 0.000000 5.242874
v -2.966000 0.000000 5.301653
v -2.946902 0.000000 5.360432
v -2.896902 0.000000 5.396759
v -2.835098 0.000000 5.396759
v -2.785098 0.000000 5.360432
v -2.766000 0.000000 5.301653
v -2.785098 3.000000 5.242874
v -2.835098 3.000000 5.206547
v -2.896902 3.000000 5.206547
v -2.946902 3.000000 5.242874
v -2.966000 3.000000 5.301653
v -2.946902 3.000000 5.360432
v -2.896902 3.000000 5.396759
v -2.835098 3.000000 5.396759
v -2.785098 3.000000 5.360432
v -2.766000 3.000000 5.301653
v -2.866000 0.000000 5.301653
v -2.866000 3.000000 5.301653
v 2.946902 0.000000 -5.360779
v 2.896902 0.000000 -5.397106
v 2.835098 0.000000 -5.397106
v 2.785098 0.000000 -5.360779
v 2.766000 0.000000 -5.302000
v 2.785098 0.000000 -5.243221
v 2.835098 0.000000 -5.206894
v 2.896902 0.000000 -5.206894
v 2.946902 0.000000 -5.243221
v 2.966000 0.000000 -5.302000
v 2.946902 3.000000 -5.360779
v 2.896902 3.000000 -5.397106
v 2.835098 3.000000 -5.397106
v 2.785098 3.000000 -5.360779
v 2.766000 3.000000 -5.302000
v 2.785098 3.000000 -5.243221
v 2.835098 3.000000 -5.206894
v 2.896902 3.000000 -5.206894
v 2.946902 3.000000 -5.243221
v 2.966000 3.000000 -5.302000
v 2.866000 0.000000 -5.302000
v 2.866000 3.000000 -5.302000
v -2.785098 0.000000 -5.360779
v -2.835098 0.000000 -5.397106
v -2.896902 0.000000 -5.397106
v -2.946902 0.000000 -5.360779
v -2.966000 0.000000 -5.302000
v -2.946902 0.000000 -5.243221
v -2.896902 0.000000 -5.206894
v -2.835098 0.000000 -5.206894
v -2.785098 0.000000 -5.243221
v -2.766000 0.000000 -5.302000
v -2.785098 3.000000 -5.360779
v -2.835098 3.000000 -5.397106
v -2.896902 3.000000 -5.397106
v -2.946902 3.000000 -5.360779
v -2.966000 3.000000 -5.302000
v -2.946902 3.000000 -5.243221
v -2.896902 3.000000 -5.206894
v -2.835098 3.000000 -5.206894
v -2.785098 3.000000 -5.243221
v -2.766000 3.000000 -5.302000
v -2.866000 0.000000 -5.302000
v -2.866000 3.000000 -5.302000
vt 0.551100 0.108694
vt 0.583303 0.118085
vt 0.551100 0.115318
vt 0.948771 0.108694
vt 0.916567 0.118086
vt 0.948771 0.115318
vt 0.012187 0.128322
vt 0.044390 0.128322
vt 0.044390 0.161353
vt 0.012187 0.161353
vt 0.377654 0.128322
vt 0.377654 0.161353
vt 0.044390 0.830849
vt 0.012187 0.830849
vt 0.409858 0.128322
vt 0.409858 0.161353
vt 0.377654 0.830849
vt 0.012187 0.863880
vt 0.044390 0.863880
vt 0.409858 0.830849
vt 0.377654 0.863880
vt 0.409858 0.863880
vt 0.460342 0.863880
vt 0.473424 0.830849
vt 0.466967 0.863880
vt 0.473424 0.161353
vt 0.460342 0.128322
vt 0.466967 0.128322
vt 0.538746 0.161353
vt 0.525664 0.128322
vt 0.532289 0.128322
vt 0.538746 0.830849
vt 0.525664 0.863880
vt 0.532289 0.863880
vt 0.014296 0.116951
vt 0.014296 0.110327
vt 0.046499 0.107559
vt 0.379763 0.107559
vt 0.411967 0.116951
vt 0.411967 0.110327
vt 0.590986 0.863880
vt 0.590986 0.128322
vt 0.988657 0.128322
vt 0.988657 0.863880
vt 0.989787 0.929484
vt 0.989787 0.923542
vt 0.073887 0.923542
vt 0.073887 0.929484
vt 0.989787 0.911034
vt 0.073887 0.911034
vt 0.989787 0.896862
vt 0.073887 0.896862
vt 0.989787 0.886657
vt 0.073888 0.886658
vt 0.989787 0.884327
vt 0.073887 0.884327
vt 0.989787 0.890548
vt 0.073887 0.890548
vt 0.989787 0.902812
vt 0.073887 0.902812
vt 0.989787 0.916556
vt 0.073887 0.916556
vt 0.989787 0.926738
vt 0.073887 0.926738
vt 0.989787 0.916950
vt 0.989787 0.902777
vt 0.073887 0.902777
vt 0.073888 0.916950
vt 0.989787 0.890269
vt 0.073887 0.890269
vt 0.989787 0.884327
vt 0.073887 0.884327
vt 0.019283 0.894679
vt 0.026570 0.884649
vt 0.038361 0.900878
vt 0.038361 0.880818
vt 0.019283 0.907077
vt 0.050152 0.884649
vt 0.026570 0.917107
vt 0.057439 0.894679
vt 0.038361 0.920938
vt 0.057439 0.907077
vt 0.050152 0.917107
vt 0.050152 0.884649
vt 0.057439 0.894679
vt 0.038361 0.900878
vt 0.057439 0.907077
vt 0.038361 0.880818
vt 0.050152 0.917107
vt 0.026570 0.884649
vt 0.038361 0.920938
vt 0.019282 0.894679
vt 0.026570 0.917107
vt 0.019282 0.907077
vt 0.989787 0.887074
vt 0.073887 0.887074
vt 0.989787 0.897255
vt 0.073887 0.897255
vt 0.989787 0.911000
vt 0.073887 0.911000
vt 0.989787 0.923264
vt 0.073887 0.923264
vt 0.989787 0.929484
vt 0.073887 0.929484
vt 0.989787 0.927153
vt 0.073887 0.927153
vt 0.989787 0.897254
vt 0.989787 0.910999
vt 0.073887 0.910999
vt 0.073887 0.897255
vt 0.989787 0.923263
vt 0.073887 0.923263
vt 0.989787 0.929484
vt 0.073887 0.929484
vt 0.989787 0.927152
vt 0.073887 0.927152
vt 0.989787 0.916949
vt 0.073887 0.916949
vt 0.989787 0.902776
vt 0.073887 0.902776
vt 0.989787 0.890269
vt 0.073887 0.890269
vt 0.019282 0.894679
vt 0.026570 0.884649
vt 0.038361 0.900878
vt 0.038361 0.880818
vt 0.019282 0.907077
vt 0.050152 0.884649
vt 0.026570 0.917107
vt 0.057439 0.894679
vt 0.038361 0.920938
vt 0.057439 0.907077
vt 0.050152 0.917107
vt 0.050152 0.884649
vt 0.057439 0.894679
vt 0.038361 0.900878
vt 0.057439 0.907077
vt 0.038361 0.880818
vt 0.050152 0.917107
vt 0.026570 0.884649
vt 0.038361 0.920938
vt 0.019282 0.894679
vt 0.026570 0.917107
vt 0.019282 0.907077
vt 0.989787 0.884326
vt 0.073887 0.884327
vt 0.989787 0.887072
vt 0.073887 0.887072
vt 0.989787 0.884327
vt 0.989787 0.890547
vt 0.073887 0.890547
vt 0.073887 0.884327
vt 0.989787 0.902811
vt 0.073887 0.902811
vt 0.989787 0.916555
vt 0.073887 0.916555
vt 0.989787 0.926738
vt 0.073887 0.926738
vt 0.989787 0.929484
vt 0.073887 0.929484
vt 0.989787 0.923541
vt 0.073887 0.923541
vt 0.989787 0.911034
vt 0.073887 0.911034
vt 0.989787 0.896860
vt 0.073887 0.896860
vt 0.989787 0.886658
vt 0.073887 0.886658
vt 0.019283 0.907077
vt 0.026570 0.917107
vt 0.019283 0.894679
vt 0.038361 0.920938
vt 0.019283 0.894679
vt 0.026570 0.884649
vt 0.038361 0.900878
vt 0.038361 0.880818
vt 0.019283 0.907077
vt 0.050152 0.884649
vt 0.026570 0.917107
vt 0.057439 0.894679
vt 0.038361 0.920938
vt 0.057439 0.907077
vt 0.050152 0.917107
vt 0.050152 0.884649
vt 0.057439 0.894679
vt 0.038361 0.900878
vt 0.057439 0.907077
vt 0.038361 0.880818
vt 0.050152 0.917107
vt 0.026570 0.884649
vt 0.038361 0.920938
vt 0.019283 0.894679
vt 0.026570 0.917107
vt 0.019283 0.907077
vt 0.026570 0.884649
vt 0.050152 0.917107
vt 0.038361 0.880818
vt 0.057439 0.907077
vt 0.038361 0.900878
vt 0.057439 0.894679
vt 0.050152 0.884649
vt 0.050152 0.917107
vt 0.057439 0.907077
vt 0.038361 0.920938
vt 0.057439 0.894679
vt 0.026570 0.917107
vt 0.050152 0.884649
vt 0.019283 0.907077
vt 0.038361 0.880818
vt 0.038361 0.900878
vt 0.026570 0.884649
vt 0.019283 0.894679
vn 0.000000 -0.999997 0.002419
vn 0.000000 0.000000 1.000000
vn 0.000000 0.000000 1.000000
vn -0.042429 0.987520 0.151670
vn -0.003782 0.993399 0.114648
vn -0.000178 0.999985 0.005425
vn -0.002020 0.999972 0.007221
vn 1.000000 -0.000000 0.000000
vn 1.000000 -0.000000 0.000000
vn 1.000000 0.000000 0.000000
vn -1.000000 -0.000000 0.000000
vn -1.000000 -0.000000 0.000000
vn -1.000000 0.000000 0.000000
vn -0.000178 0.999985 -0.005425
vn -0.002020 0.999972 -0.007221
vn 1.000000 -0.000000 0.000000
vn 1.000000 -0.000000 0.000000
vn 0.000000 0.000000 1.000000
vn 0.000000 -0.999997 0.002419
vn 0.000001 0.000000 1.000000
vn 0.000178 0.999985 0.005425
vn 0.003782 0.993399 0.114648
vn 0.042429 0.987520 0.151669
vn 0.002020 0.999972 0.007221
vn 0.002020 0.999972 -0.007221
vn 0.000178 0.999985 -0.005425
vn 0.000000 -0.999997 -0.002419
vn 0.000003 0.000000 -1.000000
vn 0.000000 0.000000 -1.000000
vn -0.042429 0.987520 -0.151670
vn -0.003782 0.993399 -0.114648
vn 1.000000 0.000000 0.000000
vn -1.000000 -0.000000 0.000000
vn -1.000000 0.000000 0.000000
vn -1.000000 -0.000000 0.000000
vn -0.000000 0.000000 -1.000000
vn -0.000003 0.000000 -1.000000
vn -0.000000 -0.999997 -0.002419
vn 0.042429 0.987520 -0.151669
vn 0.003782 0.993399 -0.114648
vn 0.587781 0.000000 -0.809020
vn 0.587781 0.000000 -0.809020
vn 0.587781 0.000000 -0.809020
vn 0.587781 0.000000 -0.809020
vn 0.000000 0.000000 -1.000000
vn 0.000000 0.000000 -1.000000
vn 0.000000 0.000000 -1.000000
vn 0.000000 0.000000 -1.000000
vn -0.587781 0.000000 -0.809020
vn -0.587781 0.000000 -0.809020
vn -0.587781 0.000000 -0.809020
vn -0.587781 0.000000 -0.809020
vn -0.951057 0.000000 -0.309016
vn -0.951057 0.000000 -0.309016
vn -0.951057 0.000000 -0.309016
vn -0.951057 0.000000 -0.309016
vn -0.951057 0.000000 0.309016
vn -0.951057 0.000000 0.309016
vn -0.951057 0.000000 0.309016
vn -0.951057 0.000000 0.309016
vn -0.587781 0.000000 0.809020
vn -0.587781 0.000000 0.809020
vn -0.587781 0.000000 0.809020
vn -0.587781 0.000000 0.809020
vn 0.000000 0.000000 1.000000
vn 0.000000 0.000000 1.000000
vn 0.000000 0.000000 1.000000
vn 0.000000 0.000000 1.000000
vn 0.587781 0.000000 0.809020
vn 0.587781 0.000000 0.809020
vn 0.587781 0.000000 0.809020
vn 0.587781 0.000000 0.809020
vn 0.951057 0.000000 0.309016
vn 0.951057 0.000000 0.309016
vn 0.951057 0.000000 0.309016
vn 0.951057 0.000000 0.309016
vn 0.951057 0.000000 -0.309016
vn 0.951057 0.000000 -0.309016
vn 0.951057 0.000000 -0.309016
vn 0.951057 0.000000 -0.309016
vn 0.000000 -1.000000 0.000000
vn 0.000000 -1.000000 0.000000
vn 0.000000 -1.000000 0.000000
vn 0.000000 -1.000000 0.000000
vn 0.000000 -1.000000 0.000000
vn 0.000000 -1.000000 0.000000
vn 0.000000 -1.000000 0.000000
vn 0.000000 -1.000000 0.000000
vn 0.000000 -1.000000 0.000000
vn 0.000000 -1.000000 0.000000
vn 0.000000 -1.000000 0.000000
vn 0.000000 1.000000 0.000000
vn 0.000000 1.000000 0.000000
vn 0.000000 1.000000 0.000000
vn 0.000000 1.000000 0.000000
vn 0.000000 1.000000 0.000000
vn 0.000000 1.000000 0.000000
vn 0.000000 1.000000 0.000000
vn 0.000000 1.000000 0.000000
vn 0.000000 1.000000 0.000000
vn 0.000000 1.000000 0.000000
vn 0.000000 1.000000 0.000000
vn 0.587781 0.000000 -0.809020
vn 0.587781 0.000000 -0.809020
vn 0.587781 0.000000 -0.809020
vn 0.587781 0.000000 -0.809020
vn 0.000000 0.000000 -1.000000
vn 0.000000 0.000000 -1.000000
vn 0.000000 0.000000 -1.000000
vn 0.000000 0.000000 -1.000000
vn -0.587781 0.000000 -0.809020
vn -0.587781 0.000000 -0.809020
vn -0.587781 0.000000 -0.809020
vn -0.587781 0.000000 -0.809020
vn -0.951057 0.000000 -0.309016
vn -0.951057 0.000000 -0.309016
vn -0.951057 0.000000 -0.309016
vn -0.951057 0.000000 -0.309016
vn -0.951057 0.000000 0.309016
vn -0.951057 0.000000 0.309016
vn -0.951057 0.000000 0.309016
vn -0.951057 0.000000 0.309016
vn -0.587781 0.000000 0.809020
vn -0.587781 0.000000 0.809020
vn -0.587781 0.000000 0.809020
vn -0.587781 0.000000 0.809020
vn 0.000000 0.000000 1.000000
vn 0.000000 0.000000 1.000000
vn 0.000000 0.000000 1.000000
vn 0.000000 0.000000 1.000000
vn 0.587781 0.000000 0.809020
vn 0.587781 0.000000 0.809020
vn 0.587781 0.000000 0.809020
vn 0.587781 0.000000 0.809020
vn 0.951057 0.000000 0.309016
vn 0.951057 0.000000 0.309016
vn 0.951057 0.000000 0.309016
vn 0.951057 0.000000 0.309016
vn 0.951057 0.000000 -0.309016
vn 0.951057 0.000000 -0.309016
vn 0.951057 0.000000 -0.309016
vn 0.951057 0.000000 -0.309016
vn 0.000000 -1.000000 0.000000
vn 0.000000 -1.000000 0.000000
vn 0.000000 -1.000000 0.000000
vn 0.000000 -1.000000 0.000000
vn 0.000000 -1.000000 0.000000
vn 0.000000 -1.000000 0.000000
vn 0.000000 -1.000000 0.000000
vn 0.000000 -1.000000 0.000000
vn 0.000000 -1.000000 0.000000
vn 0.000000 -1.000000 0.000000
vn 0.000000 -1.000000 0.000000
vn 0.000000 1.000000 0.000000
vn 0.000000 1.000000 0.000000
vn 0.000000 1.000000 0.000000
vn 0.000000 1.000000 0.000000
vn 0.000000 1.000000 0.000000
vn 0.000000 1.000000 0.000000
vn 0.000000 1.000000 0.000000
vn 0.000000 1.000000 0.000000
vn 0.000000 1.000000 0.000000
vn 0.000000 1.000000 0.000000
vn 0.000000 1.000000 0.000000
vn 0.587781 0.000000 -0.809020
vn 0.587781 0.000000 -0.809020
vn 0.587781 0.000000 -0.809020
vn 0.587781 0.000000 -0.809020
vn 0.000000 0.000000 -1.000000
vn 0.000000 0.000000 -1.000000
vn 0.000000 0.000000 -1.000000
vn 0.000000 0.000000 -1.000000
vn -0.587781 0.000000 -0.809020
vn -0.587781 0.000000 -0.809020
vn -0.587781 0.000000 -0.809020
vn -0.587781 0.000000 -0.809020
vn -0.951057 0.000000 -0.309016
vn -0.951057 0.000000 -0.309016
vn -0.951057 0.000000 -0.309016
vn -0.951057 0.000000 -0.309016
vn -0.951057 0.000000 0.309016
vn -0.951057 0.000000 0.309016
vn -0.951057 0.000000 0.309016
vn -0.951057 0.000000 0.309016
vn -0.587781 0.000000 0.809020
vn -0.587781 0.000000 0.809020
vn -0.587781 0.000000 0.809020
vn -0.587781 0.000000 0.809020
vn 0.000000 0.000000 1.000000
vn 0.000000 0.000000 1.000000
vn 0.000000 0.000000 1.000000
vn 0.000000 0.000000 1.000000
vn 0.587781 0.000000 0.809020
vn 0.587781 0.000000 0.809020
vn 0.587781 0.000000 0.809020
vn 0.587781 0.000000 0.809020
vn 0.951057 0.000000 0.309016
vn 0.951057 0.000000 0.309016
vn 0.951057 0.000000 0.309016
vn 0.951057 0.000000 0.309016
vn 0.951057 0.000000 -0.309016
vn 0.951057 0.000000 -0.309016
vn 0.951057 0.000000 -0.309016
vn 0.951057 0.000000 -0.309016
vn 0.000000 -1.000000 0.000000
vn 0.000000 -1.000000 0.000000
vn 0.000000 -1.000000 0.000000
vn 0.000000 -1.000000 0.000000
vn 0.000000 -1.000000 0.000000
vn 0.000000 -1.000000 0.000000
vn 0.000000 -1.000000 0.000000
vn 0.000000 -1.000000 0.000000
vn 0.000000 -1.000000 0.000000
vn 0.000000 -1.000000 0.000000
vn 0.000000 -1.000000 0.000000
vn 0.000000 1.000000 0.000000
vn 0.000000 1.000000 0.000000
vn 0.000000 1.000000 0.000000
vn 0.000000 1.000000 0.000000
vn 0.000000 1.000000 0.000000
vn 0.000000 1.000000 0.000000
vn 0.000000 1.000000 0.000000
vn 0.000000 1.000000 0.000000
vn 0.000000 1.000000 0.000000
vn 0.000000 1.000000 0.000000
vn 0.000000 1.000000 0.000000
vn 0.587781 0.000000 -0.809020
vn 0.587781 0.000000 -0.809020
vn 0.587781 0.000000 -0.809020
vn 0.587781 0.000000 -0.809020
vn 0.000000 0.000000 -1.000000
vn 0.000000 0.000000 -1.000000
vn 0.000000 0.000000 -1.000000
vn 0.000000 0.000000 -1.000000
vn -0.587781 0.000000 -0.809020
vn -0.587781 0.000000 -0.809020
vn -0.587781 0.000000 -0.809020
vn -0.587781 0.000000 -0.809020
vn -0.951057 0.000000 -0.309016
vn -0.951057 0.000000 -0.309016
vn -0.951057 0.000000 -0.309016
vn -0.951057 0.000000 -0.309016
vn -0.951057 0.000000 0.309016
vn -0.951057 0.000000 0.309016
vn -0.951057 0.000000 0.309016
vn -0.951057 0.000000 0.309016
vn -0.587781 0.000000 0.809020
vn -0.587781 0.000000 0.809020
vn -0.587781 0.000000 0.809020
vn -0.587781 0.000000 0.809020
vn 0.000000 0.000000 1.000000
vn 0.000000 0.000000 1.000000
vn 0.000000 0.000000 1.000000
vn 0.000000 0.000000 1.000000
vn 0.587781 0.000000 0.809020
vn 0.587781 0.000000 0.809020
vn 0.587781 0.000000 0.809020
vn 0.587781 0.000000 0.809020
vn 0.951057 0.000000 0.309016
vn 0.951057 0.000000 0.309016
vn 0.951057 0.000000 0.309016
vn 0.951057 0.000000 0.309016
vn 0.951057 0.000000 -0.309016
vn 0.951057 0.000000 -0.309016
vn 0.951057 0.000000 -0.309016
vn 0.951057 0.000000 -0.309016
vn 0.000000 -1.000000 0.000000
vn 0.000000 -1.000000 0.000000
vn 0.000000 -1.000000 0.000000
vn 0.000000 -1.000000 0.000000
vn 0.000000 -1.000000 0.000000
vn 0.000000 -1.000000 0.000000
vn 0.000000 -1.000000 0.000000
vn 0.000000 -1.000000 0.000000
vn 0.000000 -1.000000 0.000000
vn 0.000000 -1.000000 0.000000
vn 0.000000 -1.000000 0.000000
vn 0.000000 1.000000 0.000000
vn 0.000000 1.000000 0.000000
vn 0.000000 1.000000 0.000000
vn 0.000000 1.000000 0.000000
vn 0.000000 1.000000 0.000000
vn 0.000000 1.000000 0.000000
vn 0.000000 1.000000 0.000000
vn 0.000000 1.000000 0.000000
vn 0.000000 1.000000 0.000000
vn 0.000000 1.000000 0.000000
vn 0.000000 1.000000 0.000000
s 1
g Gabriel_table:pCube5
usemtl initialShadingGroup
f 1/1/1 11/2/2 3/3/3
s 2
f 3/7/4 11/8/5 12/9/6 5/10/7
s 3
f 2/23/8 8/24/9 4/25/10
s 4
f 5/29/11 1/30/12 3/31/13
s 2
f 5/10/7 12/9/6 20/13/14 16/14/15
s 3
f 6/26/16 8/24/9 2/23/8 7/27/17
s 1
f 9/5/18 2/4/19 4/6/20
s 2
f 10/12/21 9/11/22 4/15/23 8/16/24
f 10/12/21 8/16/24 6/20/25 18/17/26
s 1
f 11/2/2 1/1/1 2/4/19 9/5/18
s 2
f 12/9/6 11/8/5 9/11/22 10/12/21
f 12/9/6 10/12/21 18/17/26 20/13/14
s 1
f 13/35/27 14/36/28 19/37/29
s 2
f 14/18/30 16/14/15 20/13/14 19/19/31
s 3
f 7/27/17 15/28/32 6/26/16
s 4
f 16/32/33 14/34/34 13/33/35
f 5/29/11 16/32/33 13/33/35 1/30/12
s 1
f 17/38/36 15/40/37 7/39/38
s 2
f 18/17/26 6/20/25 15/22/39 17/21/40
s 1
f 1/41/1 13/42/27 7/43/38 2/44/19
f 19/37/29 17/38/36 7/39/38 13/35/27
s 2
f 20/13/14 18/17/26 17/21/40 19/19/31
s off
f 21/45/41 22/46/42 32/47/43 31/48/44
f 22/46/45 23/49/46 33/50/47 32/47/48
f 23/49/49 24/51/50 34/52/51 33/50/52
f 24/51/53 25/53/54 35/54/55 34/52/56
f 25/53/57 26/55/58 36/56/59 35/54/60
f 26/55/61 27/57/62 37/58/63 36/56/64
f 27/57/65 28/59/66 38/60/67 37/58/68
f 28/59/69 29/61/70 39/62/71 38/60/72
f 29/61/73 30/63/74 40/64/75 39/62/76
f 30/63/77 21/45/78 31/48/79 40/64/80
s 6
f 22/73/81 21/74/82 41/75/83
f 23/77/84 22/73/81 41/75/83
f 24/79/85 23/77/84 41/75/83
f 25/81/86 24/79/85 41/75/83
f 26/83/87 25/81/86 41/75/83
f 27/82/88 26/83/87 41/75/83
f 28/80/89 27/82/88 41/75/83
f 29/78/90 28/80/89 41/75/83
f 30/76/91 29/78/90 41/75/83
f 21/74/82 30/76/91 41/75/83
s 7
f 31/84/92 32/85/93 42/86/94
f 32/85/93 33/87/95 42/86/94
f 33/87/95 34/89/96 42/86/94
f 34/89/96 35/91/97 42/86/94
f 35/91/97 36/93/98 42/86/94
f 36/93/98 37/94/99 42/86/94
f 37/94/99 38/92/100 42/86/94
f 38/92/100 39/90/101 42/86/94
f 39/90/101 40/88/102 42/86/94
f 40/88/102 31/84/92 42/86/94
s off
f 43/65/103 44/66/104 54/67/105 53/68/106
f 44/66/107 45/69/108 55/70/109 54/67/110
f 45/69/111 46/71/112 56/72/113 55/70/114
f 46/71/115 47/95/116 57/96/117 56/72/118
f 47/95/119 48/97/120 58/98/121 57/96/122
f 48/97/123 49/99/124 59/100/125 58/98/126
f 49/99/127 50/101/128 60/102/129 59/100/130
f 50/101/131 51/103/132 61/104/133 60/102/134
f 51/103/135 52/105/136 62/106/137 61/104/138
f 52/105/139 43/65/140 53/68/141 62/106/142
s 8
f 44/123/143 43/124/144 63/125/145
f 45/127/146 44/123/143 63/125/145
f 46/129/147 45/127/146 63/125/145
f 47/131/148 46/129/147 63/125/145
f 48/133/149 47/131/148 63/125/145
f 49/132/150 48/133/149 63/125/145
f 50/130/151 49/132/150 63/125/145
f 51/128/152 50/130/151 63/125/145
f 52/126/153 51/128/152 63/125/145
f 43/124/144 52/126/153 63/125/145
s 9
f 53/134/154 54/135/155 64/136/156
f 54/135/155 55/137/157 64/136/156
f 55/137/157 56/139/158 64/136/156
f 56/139/158 57/141/159 64/136/156
f 57/141/159 58/143/160 64/136/156
f 58/143/160 59/144/161 64/136/156
f 59/144/161 60/142/162 64/136/156
f 60/142/162 61/140/163 64/136/156
f 61/140/163 62/138/164 64/136/156
f 62/138/164 53/134/154 64/136/156
s off
f 65/107/165 66/108/166 76/109/167 75/110/168
f 66/108/169 67/111/170 77/112/171 76/109/172
f 67/111/173 68/113/174 78/114/175 77/112/176
f 68/113/177 69/115/178 79/116/179 78/114/180
f 69/115/181 70/117/182 80/118/183 79/116/184
f 70/117/185 71/119/186 81/120/187 80/118/188
f 71/119/189 72/121/190 82/122/191 81/120/192
f 72/121/193 73/145/194 83/146/195 82/122/196
f 73/145/197 74/147/198 84/148/199 83/146/200
f 74/147/201 65/107/202 75/110/203 84/148/204
s 10
f 66/173/205 65/174/206 85/175/207
f 67/177/208 66/173/205 85/175/207
f 68/179/209 67/177/208 85/175/207
f 69/181/210 68/179/209 85/175/207
f 70/183/211 69/181/210 85/175/207
f 71/182/212 70/183/211 85/175/207
f 72/180/213 71/182/212 85/175/207
f 73/178/214 72/180/213 85/175/207
f 74/176/215 73/178/214 85/175/207
f 65/174/206 74/176/215 85/175/207
s 11
f 75/184/216 76/185/217 86/186/218
f 76/185/217 77/187/219 86/186/218
f 77/187/219 78/189/220 86/186/218
f 78/189/220 79/191/221 86/186/218
f 79/191/221 80/193/222 86/186/218
f 80/193/222 81/194/223 86/186/218
f 81/194/223 82/192/224 86/186/218
f 82/192/224 83/190/225 86/186/218
f 83/190/225 84/188/226 86/186/218
f 84/188/226 75/184/216 86/186/218
s off
f 87/149/227 88/150/228 98/151/229 97/152/230
f 88/150/231 89/153/232 99/154/233 98/151/234
f 89/153/235 90/155/236 100/156/237 99/154/238
f 90/155/239 91/157/240 101/158/241 100/156/242
f 91/157/243 92/159/244 102/160/245 101/158/246
f 92/159/247 93/161/248 103/162/249 102/160/250
f 93/161/251 94/163/252 104/164/253 103/162/254
f 94/163/255 95/165/256 105/166/257 104/164/258
f 95/165/259 96/167/260 106/168/261 105/166/262
f 96/167/263 87/149/264 97/152/265 106/168/266
s 12
f 88/212/267 87/211/268 107/210/269
f 89/208/270 88/212/267 107/210/269
f 90/206/271 89/208/270 107/210/269
f 91/204/272 90/206/271 107/210/269
f 92/202/273 91/204/272 107/210/269
f 93/203/274 92/202/273 107/210/269
f 94/205/275 93/203/274 107/210/269
f 95/207/276 94/205/275 107/210/269
f 96/209/277 95/207/276 107/210/269
f 87/211/268 96/209/277 107/210/269
s 13
f 97/201/278 98/200/279 108/199/280
f 98/200/279 99/198/281 108/199/280
f 99/198/281 100/196/282 108/199/280
f 100/196/282 101/172/283 108/199/280
f 101/172/283 102/170/284 108/199/280
f 102/170/284 103/169/285 108/199/280
f 103/169/285 104/171/286 108/199/280
f 104/171/286 105/195/287 108/199/280
f 105/195/287 106/197/288 108/199/280
f 106/197/288 97/201/278 108/199/280
