# This file uses centimeters as units for non-parametric coordinates.

mtllib chair.mtl
g default
v 0.878086 1.773508 1.094359
v 1.094359 1.773508 1.094359
v 0.878086 2.000878 1.094359
v 1.094359 2.000878 1.094359
v 0.878086 2.000878 0.864721
v 1.094359 2.000878 0.864722
v 0.878086 2.000879 -0.962877
v 1.094359 2.000879 -0.864722
v 0.878086 2.000879 -1.094359
v 1.094359 2.000879 -1.094359
v 0.878086 1.773508 -1.094359
v 1.094359 1.773508 -1.094359
v 0.878086 1.773508 -0.759209
v 1.094359 1.773509 -0.759208
v 0.878086 1.773508 0.745432
v 1.094359 1.773509 0.745433
v 0.878086 -0.000370 -1.094359
v 1.094359 -0.000370 -1.094359
v 1.094359 -0.000370 -0.939144
v 0.878086 -0.000370 -0.939144
v 0.878086 -0.000370 0.947590
v 1.094359 -0.000370 0.947590
v 1.094359 -0.000370 1.094359
v 0.878086 -0.000370 1.094359
v 0.878086 2.548059 -1.007142
v 1.094359 2.548059 -0.864722
v 1.094359 2.548059 -1.094359
v 0.878086 2.548059 -1.094359
v 0.878086 3.969222 -1.007142
v 1.094359 3.969222 -0.864722
v 1.094359 3.969222 -1.094359
v 0.878086 3.969222 -1.094359
v 0.878086 1.773508 -0.619051
v 1.094359 1.773507 -0.619052
v 1.094359 1.933333 -0.619055
v 0.878085 1.933334 -0.619051
v 0.878086 1.773509 -0.259453
v 1.094359 1.773509 -0.259455
v 1.094359 1.891706 -0.259453
v 0.878086 1.891706 -0.259453
v 0.878086 1.773509 0.253301
v 1.094359 1.773507 0.253300
v 1.094359 1.933332 0.253297
v 0.878085 1.933334 0.253300
v -0.000002 1.935571 -0.864722
v -0.000002 1.968087 -1.213462
v -0.000002 1.773508 -1.213462
v -0.000002 1.773508 -0.864722
v -0.000002 1.773508 -0.619051
v -0.000002 1.773510 -0.259453
v -0.000002 1.773509 0.253301
v -0.000002 1.773509 0.864722
v -0.000002 1.773509 1.094359
v -0.000002 1.951664 1.094359
v -0.000002 1.928810 0.864721
v -0.000002 1.896179 0.253300
v -0.000002 1.854551 -0.259453
v -0.000002 1.896179 -0.619051
g topoSymmetrySet
v -0.000002 2.613854 -1.144854
g default
v -0.000002 2.613854 -1.242230
v -0.000002 3.901809 -1.242230
g topoSymmetrySet
v -0.000002 3.901809 -1.144854
g default
v -0.878090 1.773508 1.094359
v -1.094363 1.773508 1.094359
v -1.094363 2.000878 1.094359
v -0.878090 2.000878 1.094359
v -1.094363 2.000878 0.864722
v -0.878090 2.000878 0.864721
v -1.094363 1.933332 0.253297
v -0.878089 1.933334 0.253300
v -0.878091 3.969222 -1.007142
v -1.094363 3.969222 -0.864722
v -1.094363 3.969222 -1.094359
v -0.878091 3.969222 -1.094359
v -0.878090 2.000879 -1.094359
v -1.094363 2.000879 -1.094359
v -1.094363 1.773508 -1.094359
v -0.878090 1.773508 -1.094359
v -0.878090 -0.000370 -1.094359
v -1.094363 -0.000370 -1.094359
v -1.094363 -0.000370 -0.939144
v -0.878090 -0.000370 -0.939144
v -0.878090 1.773509 0.253301
v -1.094363 1.773507 0.253300
v -1.094363 1.773509 0.745433
v -0.878090 1.773508 0.745432
v -0.878090 -0.000370 0.947590
v -1.094363 -0.000370 0.947590
v -1.094363 -0.000370 1.094359
v -0.878090 -0.000370 1.094359
v -1.094363 1.773509 -0.759208
v -1.094363 2.000879 -0.864722
v -0.878090 1.773508 -0.759209
v -0.878090 2.000879 -0.962877
v -1.094363 2.548059 -0.864722
v -0.878091 2.548059 -1.007142
v -1.094363 2.548059 -1.094359
v -0.878091 2.548059 -1.094359
v -1.094363 1.773507 -0.619052
v -0.878090 1.773508 -0.619051
v -1.094363 1.933333 -0.619055
v -0.878089 1.933334 -0.619051
v -1.094363 1.773509 -0.259455
v -0.878091 1.773509 -0.259453
v -1.094363 1.891706 -0.259453
v -0.878091 1.891706 -0.259453
v -0.439046 3.925282 -1.106288
v -0.439046 3.925282 -1.198585
v -0.439046 2.580957 -1.198585
v -0.439046 2.580957 -1.106288
v 0.439042 3.925282 -1.106288
v 0.439042 2.580957 -1.106288
v 0.439042 2.580957 -1.198585
v 0.439042 3.925282 -1.198585
vt 0.640042 0.962804
vt 0.640042 0.990974
vt 0.610427 0.990974
vt 0.610427 0.962805
vt 0.871088 0.962804
vt 0.871088 0.990974
vt 0.616837 0.848434
vt 0.640041 0.848434
vt 0.610427 0.734064
vt 0.640042 0.734064
vt 0.610427 0.705894
vt 0.640041 0.705895
vt 0.871088 0.705895
vt 0.871088 0.734064
vt 0.596936 0.962288
vt 0.596936 0.990458
vt 0.567026 0.990458
vt 0.567026 0.962288
vt 0.487388 0.990458
vt 0.487389 0.962288
vt 0.567026 0.847918
vt 0.596936 0.847918
vt 0.420603 0.990458
vt 0.420603 0.962289
vt 0.487389 0.847918
vt 0.567026 0.733548
vt 0.596936 0.733548
vt 0.373765 0.990458
vt 0.373766 0.962288
vt 0.420603 0.847918
vt 0.487389 0.733548
vt 0.567026 0.705379
vt 0.596936 0.705379
vt 0.341767 0.990458
vt 0.328983 0.962288
vt 0.373766 0.847918
vt 0.420603 0.733548
vt 0.487388 0.705379
vt 0.341767 0.847918
vt 0.373766 0.733548
vt 0.420603 0.705379
vt 0.328983 0.733548
vt 0.311857 0.962288
vt 0.296344 0.847918
vt 0.373765 0.705379
vt 0.311857 0.733548
vt 0.341767 0.705379
vt 0.290960 0.587566
vt 0.319129 0.569016
vt 0.319129 0.598926
vt 0.290960 0.598926
vt 0.233775 0.612501
vt 0.233775 0.600479
vt 0.176590 0.618186
vt 0.176590 0.605503
vt 0.119405 0.600479
vt 0.119405 0.612501
vt 0.062219 0.587566
vt 0.062219 0.598926
vt 0.034050 0.598926
vt 0.034050 0.569016
vt 0.062030 0.270564
vt 0.033860 0.270564
vt 0.033860 0.240949
vt 0.062030 0.240949
vt 0.062030 0.341834
vt 0.033860 0.341834
vt 0.033860 0.009903
vt 0.062030 0.009903
vt 0.176400 0.240949
vt 0.176400 0.266293
vt 0.062030 0.526939
vt 0.033860 0.526939
vt 0.290770 0.240949
vt 0.290770 0.270564
vt 0.119215 0.346119
vt 0.119215 0.521216
vt 0.318940 0.240949
vt 0.318940 0.270564
vt 0.176400 0.350404
vt 0.176400 0.518159
vt 0.290770 0.009903
vt 0.318940 0.009903
vt 0.318940 0.341834
vt 0.290770 0.341834
vt 0.233585 0.346119
vt 0.233585 0.521216
vt 0.318940 0.526939
vt 0.290770 0.526939
vt 0.546528 0.353940
vt 0.546528 0.325771
vt 0.566745 0.325771
vt 0.566745 0.353940
vt 0.882623 0.351658
vt 0.882624 0.323489
vt 0.946723 0.323489
vt 0.946723 0.351658
vt 0.815838 0.351658
vt 0.815838 0.323489
vt 0.962261 0.466029
vt 0.882624 0.466029
vt 0.769001 0.351658
vt 0.769001 0.323489
vt 0.815838 0.466029
vt 0.946723 0.580399
vt 0.882624 0.580399
vt 0.992171 0.466029
vt 0.992171 0.351658
vt 0.750745 0.351658
vt 0.750745 0.323489
vt 0.769001 0.466029
vt 0.815838 0.580399
vt 0.992171 0.580399
vt 0.946724 0.608568
vt 0.882624 0.608568
vt 0.737002 0.466029
vt 0.769001 0.580399
vt 0.815838 0.608568
vt 0.750745 0.580399
vt 0.691579 0.466029
vt 0.707092 0.351658
vt 0.769001 0.608568
vt 0.750745 0.608568
vt 0.707092 0.580399
vt 0.504929 0.356093
vt 0.504929 0.327924
vt 0.524045 0.327924
vt 0.524045 0.356093
vt 0.614585 0.240949
vt 0.658238 0.240949
vt 0.658238 0.270564
vt 0.628328 0.270564
vt 0.638021 0.009903
vt 0.658238 0.009903
vt 0.658238 0.341834
vt 0.628328 0.341834
vt 0.596330 0.261766
vt 0.596330 0.240949
vt 0.658238 0.526939
vt 0.628328 0.526939
vt 0.549492 0.256345
vt 0.549492 0.240950
vt 0.482707 0.261766
vt 0.482706 0.240949
vt 0.418606 0.240949
vt 0.403069 0.270564
vt 0.373159 0.240949
vt 0.373159 0.270564
vt 0.373159 0.009903
vt 0.392276 0.009903
vt 0.741675 0.251540
vt 0.713506 0.251540
vt 0.713506 0.020494
vt 0.741675 0.020494
vt 0.836451 0.250818
vt 0.792798 0.250818
vt 0.792798 0.019772
vt 0.813014 0.019772
vt 0.741675 0.251540
vt 0.713506 0.251540
vt 0.713506 0.020494
vt 0.741675 0.020494
vt 0.792798 0.250818
vt 0.836451 0.250818
vt 0.813014 0.019772
vt 0.792798 0.019772
vt 0.290254 0.962620
vt 0.290254 0.990790
vt 0.218984 0.990790
vt 0.218984 0.962620
vt 0.033878 0.990790
vt 0.033878 0.962620
vt 0.039602 0.905435
vt 0.214699 0.905435
vt 0.042659 0.848250
vt 0.210414 0.848250
vt 0.039602 0.791065
vt 0.214699 0.791065
vt 0.218984 0.733879
vt 0.033879 0.733879
vt 0.033878 0.705710
vt 0.218984 0.705710
vt 0.290254 0.733880
vt 0.290254 0.705710
vt 0.425041 0.312187
vt 0.442166 0.312187
vt 0.436401 0.383456
vt 0.425041 0.383456
vt 0.062219 0.655297
vt 0.062219 0.643937
vt 0.119404 0.656851
vt 0.119405 0.668872
vt 0.176590 0.661874
vt 0.176590 0.674557
vt 0.233775 0.656851
vt 0.233775 0.668872
vt 0.290960 0.655297
vt 0.290960 0.643937
vt 0.546528 0.325771
vt 0.566745 0.325771
vt 0.566745 0.353940
vt 0.546528 0.353940
vt 0.504929 0.327924
vt 0.524045 0.327924
vt 0.524045 0.356093
vt 0.504929 0.356093
vt 0.614585 0.240949
vt 0.628328 0.270564
vt 0.658238 0.270564
vt 0.658238 0.240949
vt 0.596330 0.261766
vt 0.596330 0.240949
vt 0.628328 0.341834
vt 0.658238 0.341834
vt 0.658238 0.009903
vt 0.638021 0.009903
vt 0.549492 0.256345
vt 0.549492 0.240950
vt 0.628328 0.526939
vt 0.658238 0.526939
vt 0.482707 0.261766
vt 0.482706 0.240949
vt 0.418606 0.240949
vt 0.403069 0.270564
vt 0.373159 0.240949
vt 0.373159 0.270564
vt 0.392275 0.009903
vt 0.373159 0.009903
vt 0.713506 0.251540
vt 0.713506 0.020494
vt 0.741675 0.020494
vt 0.741675 0.251540
vt 0.836451 0.250818
vt 0.813014 0.019772
vt 0.792798 0.019772
vt 0.792798 0.250818
vt 0.713506 0.251540
vt 0.713506 0.020493
vt 0.741675 0.020493
vt 0.741675 0.251540
vt 0.792798 0.250818
vt 0.792798 0.019772
vt 0.813014 0.019772
vt 0.836451 0.250818
vt 0.425041 0.312187
vt 0.425041 0.383456
vt 0.436401 0.383456
vt 0.442166 0.312187
vt 0.614585 0.240949
vt 0.628328 0.270564
vt 0.658238 0.270564
vt 0.658238 0.240949
vt 0.418606 0.240949
vt 0.403069 0.270564
vt 0.482707 0.261766
vt 0.482706 0.240949
vt 0.373159 0.240949
vt 0.418606 0.240949
vt 0.614585 0.240949
vt 0.628328 0.270564
vt 0.628328 0.341834
vt 0.658238 0.341834
vt 0.596330 0.261766
vt 0.596330 0.240949
vt 0.549492 0.256345
vt 0.549492 0.240950
vn 0.000000 0.000000 1.000000
vn 0.000000 0.000000 1.000000
vn 0.000000 0.000000 1.000000
vn 0.000000 0.000000 1.000000
vn -0.055283 0.997676 -0.039833
vn -0.000000 1.000000 0.000001
vn 0.000002 0.996791 -0.080052
vn -0.051161 0.995928 -0.074229
vn 0.000003 0.995318 -0.096659
vn -0.042462 0.995537 -0.084275
vn -0.041891 0.999122 0.000000
vn 0.000000 1.000000 0.000000
vn 0.000000 1.000000 0.000000
vn -0.056850 0.998383 0.000000
vn 0.070249 0.000000 -0.997529
vn 0.000000 0.000000 -1.000000
vn 0.000000 0.000000 -1.000000
vn 0.040621 0.000000 -0.999175
vn 0.000000 -1.000000 0.000000
vn 0.000000 -1.000000 0.000000
vn 0.000000 -1.000000 0.000000
vn 0.000000 -1.000000 0.000000
vn -0.000001 -1.000000 -0.000000
vn -0.000003 -1.000000 -0.000001
vn -0.000002 -1.000000 0.000002
vn -0.000001 -1.000000 0.000000
vn 0.000000 -1.000000 0.000000
vn 0.000000 -1.000000 0.000000
vn 0.000000 -1.000000 0.000000
vn 0.000000 -1.000000 0.000000
vn 1.000000 0.000000 0.000000
vn 1.000000 0.000000 0.000000
vn 1.000000 0.000000 0.000000
vn 1.000000 0.000000 0.000000
vn 1.000000 0.000000 0.000000
vn 1.000000 0.000000 -0.000000
vn 1.000000 0.000000 -0.000000
vn 1.000000 0.000000 0.000000
vn 1.000000 0.000000 0.000000
vn 1.000000 0.000000 0.000000
vn 0.000000 0.000000 -1.000000
vn 0.000000 0.000000 -1.000000
vn 1.000000 0.000000 0.000000
vn 1.000000 0.000000 0.000000
vn -0.000000 -0.100918 0.994895
vn -0.000000 -0.100918 0.994895
vn -0.000000 -0.100918 0.994895
vn -0.000000 -0.100918 0.994895
vn -1.000000 -0.000000 0.000000
vn -1.000000 -0.000000 0.000000
vn -1.000000 -0.000000 0.000000
vn -1.000000 -0.000000 0.000000
vn 0.000001 -0.113231 -0.993569
vn 0.000001 -0.113231 -0.993569
vn 0.000001 -0.113231 -0.993569
vn 0.000001 -0.113231 -0.993569
vn 1.000000 0.000000 0.000000
vn 1.000000 0.000000 0.000000
vn 0.000000 0.000000 1.000000
vn 0.000000 0.000000 1.000000
vn -1.000000 -0.000000 0.000000
vn -1.000000 -0.000000 0.000000
vn -1.000000 -0.000000 0.000000
vn -1.000000 -0.000000 0.000000
vn -0.485760 0.035327 0.873378
vn -0.485760 0.035327 0.873378
vn -0.533059 0.009513 0.846025
vn -0.368657 0.004319 0.929555
vn 1.000000 0.000000 0.000000
vn 1.000000 0.000000 0.000000
vn 0.135541 0.000000 -0.990772
vn 0.000000 0.000000 -1.000000
vn -1.000000 0.000001 0.000000
vn -1.000000 0.000001 0.000000
vn -1.000000 0.000001 0.000000
vn -1.000000 0.000001 0.000000
vn -0.549983 0.000000 0.835176
vn -0.353171 0.000000 0.935559
vn 1.000000 0.000000 0.000000
vn 1.000000 0.000000 0.000000
vn 0.152387 0.000000 -0.988321
vn 0.000000 0.000000 -1.000000
vn -0.074721 -0.997204 0.000000
vn -0.074721 -0.997204 0.000000
vn -0.074721 -0.997204 0.000000
vn -0.074721 -0.997204 0.000000
vn -0.159711 0.000000 0.987164
vn -0.159692 0.000000 0.987167
vn -0.073379 0.997304 0.000000
vn -0.078092 0.996946 0.000000
vn 0.170786 0.000000 -0.985308
vn 0.170804 0.000000 -0.985305
vn -0.000000 -1.000000 -0.000000
vn -0.000002 -1.000000 -0.000008
vn -0.000003 -1.000000 0.000001
vn -0.000001 -1.000000 0.000001
vn 1.000000 0.000000 0.000000
vn 1.000000 0.000000 0.000000
vn -0.040240 0.988181 0.147919
vn -0.023094 0.986103 0.164525
vn -0.050618 0.973483 0.223089
vn -0.051748 0.989609 0.134149
vn -0.000003 -1.000000 0.000000
vn -0.000001 -1.000000 0.000000
vn 1.000000 0.000001 0.000000
vn 1.000000 0.000001 0.000000
vn -0.033948 0.999424 0.000035
vn 0.000004 1.000000 0.000000
vn -0.051160 0.989765 0.133224
vn -0.056448 0.996125 0.067448
vn -0.056448 0.996125 0.067448
vn 0.134408 0.000000 -0.990926
vn 0.134408 0.000000 -0.990926
vn -0.000000 -1.000000 0.000000
vn 0.000000 -1.000000 0.000000
vn 0.000000 -1.000000 0.000000
vn -0.000000 -1.000000 0.000001
vn -0.000000 -1.000000 0.000000
vn -0.000000 -1.000000 -0.000000
vn -0.000001 -1.000000 0.000000
vn -0.000001 -1.000000 0.000000
vn -0.000001 -1.000000 0.000000
vn 0.000000 0.000000 1.000000
vn 0.000000 0.000000 1.000000
vn -0.063757 0.995303 -0.072847
vn -0.068811 0.996397 -0.049581
vn -0.052858 0.995295 -0.081201
vn -0.042276 0.999106 -0.000044
vn -0.044447 0.988643 0.143562
vn 0.000000 0.000000 1.000000
vn 0.000000 0.000000 1.000000
vn 0.000000 0.000000 1.000000
vn 0.000000 0.000000 1.000000
vn 0.055283 0.997676 -0.039833
vn 0.051161 0.995928 -0.074229
vn -0.000002 0.996791 -0.080052
vn 0.000000 1.000000 0.000001
vn 0.042462 0.995537 -0.084275
vn -0.000003 0.995318 -0.096659
vn 0.041891 0.999122 0.000000
vn 0.056850 0.998383 0.000000
vn 0.000000 1.000000 0.000000
vn 0.000000 1.000000 0.000000
vn -0.070249 0.000000 -0.997529
vn -0.040621 0.000000 -0.999175
vn 0.000000 0.000000 -1.000000
vn 0.000000 0.000000 -1.000000
vn 0.000000 -1.000000 0.000000
vn 0.000000 -1.000000 0.000000
vn 0.000000 -1.000000 0.000000
vn 0.000000 -1.000000 0.000000
vn 0.000001 -1.000000 -0.000000
vn 0.000001 -1.000000 0.000000
vn 0.000002 -1.000000 0.000002
vn 0.000003 -1.000000 -0.000001
vn 0.000000 -1.000000 0.000000
vn 0.000000 -1.000000 0.000000
vn 0.000000 -1.000000 0.000000
vn 0.000000 -1.000000 0.000000
vn -1.000000 -0.000000 0.000000
vn -1.000000 -0.000000 0.000000
vn -1.000000 0.000000 0.000000
vn -1.000000 0.000000 0.000000
vn -1.000000 0.000000 0.000000
vn -1.000000 0.000000 0.000000
vn -1.000000 0.000000 -0.000000
vn -1.000000 0.000000 -0.000000
vn -1.000000 0.000000 0.000000
vn -1.000000 0.000000 0.000000
vn 0.000000 0.000000 -1.000000
vn 0.000000 0.000000 -1.000000
vn -1.000000 0.000000 0.000000
vn -1.000000 0.000000 0.000000
vn 0.000001 -0.100919 0.994895
vn 0.000001 -0.100918 0.994895
vn 0.000001 -0.100918 0.994895
vn 0.000001 -0.100918 0.994895
vn 1.000000 0.000000 0.000000
vn 1.000000 0.000000 0.000000
vn 1.000000 0.000000 0.000000
vn 1.000000 0.000000 0.000000
vn -0.000001 -0.113231 -0.993569
vn -0.000001 -0.113231 -0.993569
vn -0.000001 -0.113231 -0.993569
vn -0.000001 -0.113231 -0.993569
vn -1.000000 0.000000 0.000000
vn -1.000000 0.000000 0.000000
vn 0.000000 0.000000 1.000000
vn 0.000000 0.000000 1.000000
vn 1.000000 0.000000 0.000000
vn 1.000000 0.000000 0.000000
vn 1.000000 0.000000 0.000000
vn 1.000000 0.000000 0.000000
vn 0.485760 0.035327 0.873378
vn 0.368657 0.004319 0.929555
vn 0.533059 0.009513 0.846025
vn 0.485760 0.035327 0.873378
vn -1.000000 0.000000 0.000000
vn -1.000000 0.000000 0.000000
vn 0.000000 0.000000 -1.000000
vn -0.135541 0.000000 -0.990772
vn 1.000000 0.000001 0.000000
vn 1.000000 0.000001 0.000000
vn 1.000000 0.000001 0.000000
vn 1.000000 0.000001 0.000000
vn 0.353172 0.000000 0.935559
vn 0.549983 0.000000 0.835176
vn -1.000000 0.000000 0.000000
vn -1.000000 0.000000 0.000000
vn 0.000000 0.000000 -1.000000
vn -0.152387 0.000000 -0.988321
vn 0.074721 -0.997204 0.000000
vn 0.074721 -0.997204 0.000000
vn 0.074721 -0.997204 0.000000
vn 0.074721 -0.997204 0.000000
vn 0.159692 0.000000 0.987167
vn 0.159711 0.000000 0.987164
vn 0.078092 0.996946 0.000000
vn 0.073379 0.997304 0.000000
vn -0.170804 0.000000 -0.985305
vn -0.170786 0.000000 -0.985308
vn 0.000000 -1.000000 -0.000000
vn 0.000001 -1.000000 0.000001
vn 0.000003 -1.000000 0.000001
vn 0.000002 -1.000000 -0.000007
vn -1.000000 0.000001 0.000000
vn -1.000000 0.000001 0.000000
vn 0.040240 0.988181 0.147919
vn 0.051748 0.989609 0.134149
vn 0.050618 0.973483 0.223089
vn 0.023094 0.986102 0.164525
vn 0.000001 -1.000000 0.000000
vn 0.000003 -1.000000 0.000000
vn -1.000000 0.000001 0.000000
vn -1.000000 0.000001 0.000000
vn 0.033948 0.999424 0.000035
vn -0.000004 1.000000 0.000000
vn 0.051160 0.989765 0.133224
vn 0.056448 0.996125 0.067448
vn 0.056448 0.996125 0.067448
vn -0.134408 0.000000 -0.990926
vn -0.134408 0.000000 -0.990926
vn 0.000000 -1.000000 0.000000
vn 0.000000 -1.000000 0.000000
vn 0.000000 -1.000000 0.000000
vn 0.000000 -1.000000 0.000001
vn 0.000000 -1.000000 0.000000
vn 0.000000 -1.000000 -0.000000
vn 0.000001 -1.000000 0.000000
vn 0.000001 -1.000000 0.000000
vn 0.000001 -1.000000 0.000000
vn 0.000000 0.000000 1.000000
vn 0.000000 0.000000 1.000000
vn 0.063757 0.995303 -0.072847
vn 0.068811 0.996397 -0.049581
vn 0.052858 0.995295 -0.081201
vn 0.042276 0.999106 -0.000044
vn 0.044447 0.988643 0.143562
vn 0.053388 0.998574 0.000000
vn 0.053388 0.998574 0.000000
vn -0.098923 0.000000 -0.995095
vn -0.098923 0.000000 -0.995095
vn 0.074721 -0.997204 0.000000
vn 0.074721 -0.997204 0.000000
vn 0.087503 0.000000 0.996164
vn 0.087503 0.000000 0.996164
vn -0.087503 0.000000 0.996164
vn -0.087503 0.000000 0.996164
vn -0.074721 -0.997204 0.000000
vn -0.074721 -0.997204 0.000000
vn 0.098923 0.000000 -0.995095
vn 0.098923 0.000000 -0.995095
vn -0.053388 0.998574 0.000000
vn -0.053388 0.998574 0.000000
s 1
g ChairV1
usemtl lambert2SG
f 1/1/1 2/2/2 4/3/3 3/4/4
s 2
f 3/15/5 4/16/6 6/17/7 5/18/8
f 5/18/8 6/17/7 43/19/9 44/20/10
s 3
f 29/48/11 30/49/12 31/50/13 32/51/14
s 4
f 9/62/15 10/63/16 12/64/17 11/65/18
s off
f 17/90/19 18/91/20 19/92/21 20/93/22
s 5
f 41/94/23 42/95/24 16/96/25 15/97/26
s off
f 21/125/27 22/126/28 23/127/29 24/128/30
s 6
f 14/129/31 12/130/32 10/131/33 8/132/34
f 16/145/35 42/144/36 43/143/37 6/146/38
f 2/147/39 16/145/35 6/146/38 4/148/40
s 4
f 11/65/18 12/64/17 18/68/41 17/69/42
s 6
f 12/130/32 14/129/31 19/133/43 18/134/44
s off
f 14/151/45 13/152/46 20/153/47 19/154/48
f 13/155/49 11/156/50 17/157/51 20/158/52
f 15/159/53 16/160/54 22/161/55 21/162/56
s 6
f 16/145/35 2/147/39 23/149/57 22/150/58
s 1
f 2/2/2 1/1/1 24/5/59 23/6/60
s off
f 1/163/61 15/164/62 21/165/63 24/166/64
s 8
f 7/167/65 8/168/66 26/169/67 25/170/68
s 6
f 8/132/34 10/131/33 27/135/69 26/136/70
s 4
f 10/63/16 9/62/15 28/66/71 27/67/72
s off
f 9/185/73 7/186/74 25/187/75 28/188/76
s 8
f 25/170/68 26/169/67 30/171/77 29/172/78
s 6
f 26/136/70 27/135/69 31/139/79 30/140/80
s 4
f 27/67/72 28/66/71 32/72/81 31/73/82
s 9
f 28/189/83 25/190/84 112/191/85 113/192/86
s 8
f 25/170/68 29/172/78 111/173/87 112/174/88
s 3
f 29/48/11 32/51/14 114/52/89 111/53/90
s 4
f 32/72/81 28/66/71 113/76/91 114/77/92
s 5
f 13/109/93 14/110/94 34/103/95 33/102/96
s 6
f 35/137/97 34/138/98 14/129/31 8/132/34
s 2
f 36/29/99 35/28/100 8/34/101 7/35/102
s 5
f 33/102/96 34/103/95 38/99/103 37/98/104
s 6
f 39/141/105 38/142/106 34/138/98 35/137/97
s 2
f 40/24/107 39/23/108 35/28/100 36/29/99
s 5
f 37/98/104 38/99/103 42/95/24 41/94/23
s 6
f 43/143/37 42/144/36 38/142/106 39/141/105
s 2
f 44/20/10 43/19/9 39/23/108 40/24/107
f 45/39/109 7/35/102 9/43/110 46/44/111
s 4
f 47/70/112 46/71/113 9/62/15 11/65/18
s 5
f 48/116/114 47/120/115 11/121/116 13/109/93
f 49/111/117 48/116/114 13/109/93 33/102/96
f 50/104/118 49/111/117 33/102/96 37/98/104
f 51/101/119 50/104/118 37/98/104 41/94/23
f 52/100/120 51/101/119 41/94/23 15/97/26
f 53/107/121 52/100/120 15/97/26 1/108/122
s 1
f 54/7/123 53/8/124 1/1/1 3/4/4
s 2
f 55/21/125 54/22/126 3/15/5 5/18/8
f 56/25/127 55/21/125 5/18/8 44/20/10
f 57/30/128 56/25/127 44/20/10 40/24/107
f 58/36/129 57/30/128 40/24/107 36/29/99
f 45/39/109 58/36/129 36/29/99 7/35/102
s 12
f 63/10/130 66/9/131 65/11/132 64/12/133
s 13
f 66/27/134 68/26/135 67/32/136 65/33/137
f 68/26/135 70/31/138 69/38/139 67/32/136
s 14
f 71/58/140 74/59/141 73/60/142 72/61/143
s 15
f 75/75/144 78/74/145 77/78/146 76/79/147
s off
f 79/199/148 82/200/149 81/201/150 80/202/151
s 16
f 83/106/152 86/105/153 85/114/154 84/115/155
s off
f 87/203/156 90/204/157 89/205/158 88/206/159
s 17
f 91/249/160 92/250/161 76/251/162 77/252/163
f 85/253/164 67/254/165 69/255/166 84/256/167
f 64/257/168 65/226/169 67/224/165 85/258/164
s 15
f 78/74/145 79/82/170 80/83/171 77/78/146
s 17
f 77/210/163 80/215/172 81/216/173 91/259/160
s off
f 91/229/174 81/230/175 82/231/176 93/232/177
f 93/233/178 82/234/179 79/235/180 78/236/181
f 86/237/182 87/238/183 88/239/184 85/240/185
s 17
f 85/223/164 88/227/186 89/228/187 64/225/168
s 12
f 64/12/133 89/13/188 90/14/189 63/10/130
s off
f 63/241/190 90/242/191 87/243/192 86/244/193
s 19
f 94/183/194 96/179/195 95/182/196 92/184/197
s 17
f 92/260/161 95/261/198 97/262/199 76/209/162
s 15
f 76/79/147 97/84/200 98/85/201 75/75/144
s off
f 75/245/202 98/246/203 96/247/204 94/248/205
s 19
f 96/179/195 71/180/206 72/181/207 95/182/196
s 17
f 95/213/198 72/219/208 73/220/209 97/214/199
s 15
f 97/84/200 73/88/210 74/89/211 98/85/201
s 20
f 98/197/212 109/196/213 110/195/214 96/198/215
s 19
f 96/179/195 110/178/216 107/177/217 71/180/206
s 14
f 71/58/140 107/56/218 108/57/219 74/59/141
s 15
f 74/89/211 108/87/220 109/86/221 98/85/201
s 16
f 93/119/222 100/117/223 99/122/224 91/123/225
s 17
f 101/263/226 92/208/161 91/207/160 99/264/227
s 13
f 102/40/228 94/42/229 92/47/230 101/45/231
s 16
f 100/117/223 104/112/232 103/118/233 99/122/224
s 17
f 105/265/234 101/211/226 99/212/227 103/266/235
s 13
f 106/37/236 102/40/228 101/45/231 105/41/237
s 16
f 104/112/232 83/106/152 84/115/155 103/118/233
s 17
f 69/221/166 105/217/234 103/218/235 84/222/167
s 13
f 70/31/138 106/37/236 105/41/237 69/38/139
f 45/39/238 46/44/239 75/46/240 94/42/229
s 15
f 47/70/241 78/74/145 75/75/144 46/71/242
s 16
f 48/116/243 93/119/222 78/124/244 47/120/245
f 49/111/246 100/117/223 93/119/222 48/116/243
f 50/104/247 104/112/232 100/117/223 49/111/246
f 51/101/248 83/106/152 104/112/232 50/104/247
f 52/100/249 86/105/153 83/106/152 51/101/248
f 53/107/250 63/113/251 86/105/153 52/100/249
s 12
f 54/7/252 66/9/131 63/10/130 53/8/253
s 13
f 55/21/254 68/26/135 66/27/134 54/22/255
f 56/25/256 70/31/138 68/26/135 55/21/254
f 57/30/257 106/37/236 70/31/138 56/25/256
f 58/36/258 102/40/228 106/37/236 57/30/257
f 45/39/238 94/42/229 102/40/228 58/36/258
s 14
f 107/56/218 62/55/259 61/54/260 108/57/219
s 15
f 109/86/221 108/87/220 61/81/261 60/80/262
s 20
f 110/195/214 109/196/213 60/194/263 59/193/264
s 19
f 107/177/217 110/178/216 59/176/265 62/175/266
s 8
f 112/174/88 111/173/87 62/175/267 59/176/268
s 9
f 113/192/86 112/191/85 59/193/269 60/194/270
s 4
f 114/77/92 113/76/91 60/80/271 61/81/272
s 3
f 111/53/90 114/52/89 61/54/273 62/55/274
