# This file uses centimeters as units for non-parametric coordinates.

mtllib door.mtl
g default
v 0.831120 -1.932332 -0.285792
v 0.504272 -1.932332 -0.735659
v 0.253455 -1.932332 -0.863456
v -0.024578 -1.932332 -0.907493
v -0.302612 -1.932332 -0.863456
v -0.752478 -1.932332 0.521092
v -0.553429 -1.932332 0.720141
v -0.302612 -1.932332 0.847939
v -0.024579 -1.932332 0.891975
v 0.831119 -1.932332 0.270275
v 0.875155 -1.932332 -0.007758
v 0.917840 -1.729331 -0.313969
v 0.557868 -1.729331 -0.809428
v 0.281632 -1.729331 -0.950177
v -0.024578 -1.729331 -0.998676
v -0.330789 -1.729331 -0.950177
v -0.607025 -1.729331 -0.809427
v -0.826247 -1.729331 -0.590205
v -0.966997 -1.729331 -0.313969
v -0.966997 -1.729331 0.298452
v -0.826247 -1.729331 0.574688
v -0.607025 -1.729331 0.793910
v -0.330789 -1.729331 0.934660
v -0.024579 -1.729331 0.983159
v 0.281632 -1.729331 0.934660
v 0.557868 -1.729331 0.793910
v 0.777090 -1.729331 0.574688
v 0.917839 -1.729331 0.298452
v 0.966338 -1.729331 -0.007758
v 0.981355 -1.509369 -0.334606
v 0.831120 -1.509369 -0.629460
v 0.597123 -1.509369 -0.863457
v 0.302269 -1.509369 -1.013692
v -0.024578 -1.509369 -1.065459
v -0.351426 -1.509369 -1.013692
v -0.646279 -1.509369 -0.863456
v -0.880276 -1.509369 -0.629459
v -1.030512 -1.509369 -0.334606
v -1.082279 -1.509369 -0.007758
v -1.030512 -1.509369 0.319089
v -0.880276 -1.509369 0.613942
v -0.646279 -1.509369 0.847939
v -0.351426 -1.509369 0.998175
v -0.024579 -1.509369 1.049942
v 0.302269 -1.509369 0.998174
v 0.597122 -1.509369 0.847939
v 0.831119 -1.509369 0.613942
v 0.981354 -1.509369 0.319089
v 1.033122 -1.509369 -0.007758
v 0.864079 -1.277862 -0.653406
v 0.621069 -1.277862 -0.896415
v 0.314858 -1.277862 -1.052437
v -0.024578 -1.277862 -1.106199
v -0.364015 -1.277862 -1.052437
v -0.670225 -1.277862 -0.896415
v -0.913235 -1.277862 -0.653405
v -1.069257 -1.277862 -0.347195
v -1.123019 -1.277862 -0.007758
v -1.069257 -1.277862 0.331678
v -0.913235 -1.277862 0.637888
v -0.670225 -1.277862 0.880898
v -0.364015 -1.277862 1.036920
v -0.024579 -1.277862 1.090681
v 0.314858 -1.277862 1.036920
v 0.621068 -1.277862 0.880898
v 0.864078 -1.277862 0.637888
v 1.020100 -1.277862 0.331678
v 1.073861 -1.277862 -0.007758
v 1.033123 -1.040511 -0.351426
v 0.875156 -1.040511 -0.661454
v 0.319089 -1.040511 -1.065459
v -0.024578 -1.040511 -1.119891
v -0.368246 -1.040511 -1.065459
v -0.678273 -1.040511 -0.907492
v -0.924312 -1.040511 -0.661453
v -1.136711 -1.040511 -0.007758
v -1.082279 -1.040511 0.335909
v -0.924312 -1.040511 0.645936
v -0.678273 -1.040511 0.891975
v -0.368246 -1.040511 1.049942
v -0.024579 -1.040511 1.104374
v 0.319089 -1.040511 1.049942
v 0.629116 -1.040511 0.891975
v 0.875155 -1.040511 0.645936
v 1.033122 -1.040511 0.335909
v 1.020101 -0.803160 -0.347195
v 0.864079 -0.803160 -0.653406
v 0.621069 -0.803160 -0.896415
v 0.314858 -0.803160 -1.052437
v -0.024578 -0.803160 -1.106199
v -0.364015 -0.803160 -1.052437
v -0.670225 -0.803160 -0.896415
v -0.913235 -0.803160 -0.653405
v -1.069257 -0.803160 -0.347195
v -1.123019 -0.803160 -0.007758
v -1.069257 -0.803160 0.331678
v -0.913235 -0.803160 0.637888
v -0.670225 -0.803160 0.880898
v -0.364015 -0.803160 1.036920
v -0.024579 -0.803160 1.090681
v 0.314858 -0.803160 1.036920
v 0.621068 -0.803160 0.880898
v 0.864078 -0.803160 0.637888
v 1.020100 -0.803160 0.331678
v 1.073861 -0.803160 -0.007758
v 0.981355 -0.571654 -0.334606
v 0.831120 -0.571654 -0.629460
v 0.597123 -0.571654 -0.863457
v 0.302269 -0.571654 -1.013692
v -0.024578 -0.571654 -1.065459
v -0.351426 -0.571654 -1.013692
v -0.646279 -0.571654 -0.863456
v -0.880276 -0.571654 -0.629459
v -1.030512 -0.571654 -0.334606
v -1.082279 -0.571654 -0.007758
v -1.030512 -0.571654 0.319089
v -0.880276 -0.571654 0.613942
v -0.646279 -0.571654 0.847939
v -0.351426 -0.571654 0.998175
v -0.024579 -0.571654 1.049942
v 0.302269 -0.571654 0.998174
v 0.597122 -0.571654 0.847939
v 0.831119 -0.571654 0.613942
v 0.981354 -0.571654 0.319089
v 1.033122 -0.571654 -0.007758
v 0.777091 -0.351692 -0.590205
v 0.557868 -0.351692 -0.809428
v 0.281632 -0.351692 -0.950177
v -0.024578 -0.351692 -0.998676
v -0.607025 -0.351692 -0.809427
v -0.826247 -0.351692 -0.590205
v -0.966997 -0.351692 -0.313969
v -1.015496 -0.351692 -0.007758
v -0.966997 -0.351692 0.298452
v -0.826247 -0.351692 0.574688
v -0.607025 -0.351692 0.793910
v -0.330789 -0.351692 0.934660
v -0.024579 -0.351692 0.983159
v 0.281632 -0.351692 0.934660
v 0.557868 -0.351692 0.793910
v 0.777090 -0.351692 0.574688
v 0.917839 -0.351692 0.298452
v 0.966338 -0.351692 -0.007758
v 0.703322 -0.148691 -0.536609
v 0.504272 -0.148691 -0.735659
v 0.253455 -0.148691 -0.863456
v -0.024578 -0.148691 -0.907493
v -0.553429 -0.148691 -0.735659
v -0.752479 -0.148691 -0.536609
v -0.880276 -0.148691 -0.285791
v -0.924312 -0.148691 -0.007758
v -0.880276 -0.148691 0.270275
v -0.752478 -0.148691 0.521092
v -0.553429 -0.148691 0.720141
v -0.024579 -0.148691 0.891975
v 0.253454 -0.148691 0.847939
v 0.504272 -0.148691 0.720141
v 0.703321 -0.148691 0.521092
v 0.831119 -0.148691 0.270275
v 0.875155 -0.148691 -0.007758
vt 0.499687 0.635195
vt 0.499687 0.758326
vt 0.434854 0.758326
vt 0.434854 0.626896
vt 0.571798 0.635195
vt 0.571798 0.746273
vt 0.506966 0.762058
vt 0.506966 0.643493
vt 0.001992 0.835799
vt 0.001992 0.724721
vt 0.066824 0.733020
vt 0.066824 0.851584
vt 0.135060 0.738082
vt 0.135060 0.861213
vt 0.651188 0.762058
vt 0.651188 0.650980
vt 0.716021 0.635195
vt 0.716021 0.753759
vt 0.202929 0.236160
vt 0.202929 0.125082
vt 0.267761 0.133381
vt 0.267761 0.251945
vt 0.335997 0.138443
vt 0.335997 0.261574
vt 0.267761 0.001951
vt 0.335997 0.001951
vt 0.267761 0.346038
vt 0.335997 0.359291
vt 0.405954 0.264810
vt 0.405954 0.363745
vt 0.047410 0.720730
vt 0.047410 0.609652
vt 0.112243 0.593867
vt 0.112243 0.712431
vt 0.047410 0.521500
vt 0.112243 0.499774
vt 0.180478 0.584238
vt 0.180478 0.707369
vt 0.390775 0.499166
vt 0.390775 0.376035
vt 0.455607 0.367737
vt 0.455607 0.499166
vt 0.330941 0.499166
vt 0.330941 0.387366
vt 0.330941 0.610967
vt 0.390775 0.622297
vt 0.142511 0.866168
vt 0.142511 0.734738
vt 0.210747 0.729676
vt 0.210747 0.866168
vt 0.461742 0.613276
vt 0.461742 0.494712
vt 0.529978 0.499774
vt 0.529978 0.622905
vt 0.461742 0.363282
vt 0.529978 0.363282
vt 0.754278 0.003653
vt 0.754278 0.140144
vt 0.684320 0.140144
vt 0.684320 0.001951
vt 0.754278 0.276636
vt 0.684320 0.278337
vt 0.735149 0.282329
vt 0.871641 0.282329
vt 0.873342 0.352287
vt 0.735149 0.352287
vt 0.871641 0.422244
vt 0.735149 0.422244
vt 0.998008 0.352287
vt 0.994772 0.422244
vt 0.985143 0.490480
vt 0.866579 0.490480
vt 0.969358 0.555312
vt 0.858280 0.555312
vt 0.186613 0.718921
vt 0.186613 0.594255
vt 0.256571 0.597491
vt 0.256571 0.720622
vt 0.324806 0.607120
vt 0.324806 0.725685
vt 0.256571 0.499774
vt 0.324806 0.513027
vt 0.413416 0.359291
vt 0.413416 0.221098
vt 0.483374 0.222799
vt 0.483374 0.359291
vt 0.413416 0.096432
vt 0.483374 0.099668
vt 0.551609 0.109297
vt 0.551609 0.227861
vt 0.483374 0.001951
vt 0.551609 0.015204
vt 0.616441 0.036930
vt 0.616441 0.125082
vt 0.676275 0.066593
vt 0.676275 0.146634
vt 0.801257 0.685671
vt 0.801257 0.561005
vt 0.871215 0.559304
vt 0.871215 0.682434
vt 0.723299 0.761562
vt 0.723299 0.636896
vt 0.793257 0.635195
vt 0.793257 0.758326
vt 0.194893 0.001951
vt 0.194893 0.138443
vt 0.126658 0.138443
vt 0.126658 0.007013
vt 0.194893 0.274935
vt 0.126658 0.269872
vt 0.061825 0.138443
vt 0.061825 0.015312
vt 0.194893 0.398065
vt 0.126658 0.388436
vt 0.001992 0.138443
vt 0.001992 0.026642
vt 0.194893 0.495783
vt 0.126658 0.482530
vt 0.061825 0.460804
vt 0.061825 0.372652
vt 0.001992 0.431140
vt 0.001992 0.351100
vt 0.536113 0.631203
vt 0.536113 0.494712
vt 0.604348 0.494712
vt 0.604348 0.626141
vt 0.669181 0.494712
vt 0.669181 0.617843
vt 0.604348 0.363282
vt 0.669181 0.371581
vt 0.729014 0.382911
vt 0.729014 0.494712
vt 0.218521 0.866168
vt 0.218521 0.729676
vt 0.286756 0.729676
vt 0.286756 0.861105
vt 0.351588 0.729676
vt 0.351588 0.852807
vt 0.358845 0.762780
vt 0.358845 0.626288
vt 0.427080 0.626288
vt 0.427080 0.757718
vt 0.579077 0.762058
vt 0.579077 0.643493
vt 0.643909 0.635195
vt 0.643909 0.746273
vt 0.816482 0.787105
vt 0.816482 0.887962
vt 0.756649 0.876632
vt 0.756649 0.765554
vt 0.939049 0.559304
vt 0.939049 0.671104
vt 0.879215 0.682434
vt 0.879215 0.559304
vt 0.943635 0.671104
vt 0.961342 0.559304
vt 0.998008 0.559304
vt 0.978506 0.682434
vt 0.386898 0.883412
vt 0.386898 0.977506
vt 0.318663 0.967877
vt 0.318663 0.870159
vt 0.312528 0.870159
vt 0.312528 0.967876
vt 0.242570 0.972331
vt 0.242570 0.873395
vt 0.166477 0.967876
vt 0.166477 0.870159
vt 0.236435 0.873395
vt 0.236435 0.972331
vt 0.690680 0.888457
vt 0.690680 0.777379
vt 0.750513 0.766049
vt 0.750513 0.866906
vt 0.883126 0.809557
vt 0.902628 0.686426
vt 0.937499 0.697756
vt 0.919792 0.809557
vt 0.857489 0.689662
vt 0.876991 0.812793
vt 0.840325 0.812793
vt 0.822617 0.700992
vt 0.574841 0.846089
vt 0.654881 0.766049
vt 0.684545 0.787601
vt 0.596393 0.875753
vt 0.452867 0.766772
vt 0.452867 0.854923
vt 0.393034 0.876475
vt 0.393034 0.796435
vt 0.459002 0.854201
vt 0.547154 0.766049
vt 0.568706 0.795712
vt 0.488666 0.875753
vn 0.414984 -0.405530 -0.814453
vn 0.414984 -0.405530 -0.814453
vn 0.414984 -0.405530 -0.814453
vn 0.414984 -0.405530 -0.814453
vn -0.142994 -0.405529 -0.902828
vn -0.142994 -0.405529 -0.902828
vn -0.142994 -0.405529 -0.902828
vn -0.142994 -0.405529 -0.902828
vn -0.646354 -0.405529 0.646354
vn -0.646353 -0.405529 0.646354
vn -0.646354 -0.405529 0.646354
vn -0.646354 -0.405529 0.646354
vn -0.142994 -0.405529 0.902828
vn -0.142994 -0.405529 0.902828
vn -0.142994 -0.405529 0.902828
vn -0.142994 -0.405529 0.902828
vn 0.902828 -0.405529 0.142994
vn 0.912202 -0.409740 0.000001
vn 0.929409 -0.364527 -0.057604
vn 0.902828 -0.405529 0.142994
vn 0.902828 -0.405529 -0.142992
vn 0.928481 -0.341025 -0.147055
vn 0.149842 -0.287239 -0.946066
vn 0.149842 -0.287239 -0.946066
vn 0.149842 -0.287239 -0.946066
vn 0.149842 -0.287239 -0.946066
vn -0.434859 -0.287239 -0.853458
vn -0.434859 -0.287239 -0.853458
vn -0.434859 -0.287239 -0.853458
vn -0.434859 -0.287239 -0.853458
vn -0.853459 -0.287239 -0.434859
vn -0.853459 -0.287239 -0.434859
vn -0.868016 -0.225702 -0.442276
vn -0.868015 -0.225702 -0.442276
vn -0.853459 -0.287239 0.434859
vn -0.853459 -0.287239 0.434859
vn -0.853459 -0.287239 0.434859
vn -0.853459 -0.287239 0.434859
vn -0.434859 -0.287239 0.853459
vn -0.434859 -0.287239 0.853459
vn -0.345687 -0.209038 0.914770
vn -0.536874 -0.209038 0.817355
vn 0.434859 -0.287239 0.853458
vn 0.562434 -0.290519 0.774123
vn 0.522518 -0.247866 0.815805
vn 0.442276 -0.225701 0.868015
vn 0.677308 -0.287239 0.677309
vn 0.677308 -0.287239 0.677309
vn 0.946066 -0.287239 -0.149840
vn 0.946066 -0.287239 -0.149840
vn 0.696662 -0.171241 -0.696662
vn 0.696662 -0.171241 -0.696662
vn 0.696662 -0.171241 -0.696662
vn 0.696662 -0.171241 -0.696662
vn -0.877846 -0.171241 -0.447285
vn -0.877846 -0.171241 -0.447285
vn -0.973099 -0.171241 0.154123
vn -0.973099 -0.171241 0.154123
vn -0.973099 -0.171241 0.154123
vn -0.973099 -0.171241 0.154123
vn -0.696662 -0.171241 0.696662
vn -0.626248 -0.132984 0.768198
vn -0.702633 -0.112308 0.702633
vn -0.304340 -0.173312 0.936664
vn -0.154123 -0.171241 0.973099
vn -0.154123 -0.171241 0.973100
vn 0.447285 -0.171241 0.877845
vn 0.447285 -0.171241 0.877846
vn 0.877846 -0.171241 0.447285
vn 0.936664 -0.173312 0.304341
vn 0.936664 -0.173312 0.304341
vn 0.877846 -0.171241 0.447285
vn 0.973100 -0.171241 0.154124
vn 0.973100 -0.171241 0.154124
vn 0.156181 -0.056885 -0.986089
vn 0.000000 -0.057592 -0.998340
vn 0.000000 -0.057592 -0.998340
vn 0.156181 -0.056885 -0.986089
vn -0.156181 -0.056885 -0.986089
vn -0.156181 -0.056885 -0.986089
vn -0.705962 -0.056885 -0.705962
vn -0.705962 -0.056885 -0.705962
vn -0.705962 -0.056885 -0.705962
vn -0.705962 -0.056885 -0.705962
vn -0.705962 -0.056885 0.705962
vn -0.705962 -0.056885 0.705962
vn 0.156181 -0.056885 0.986089
vn 0.156181 -0.056885 0.986089
vn 0.258399 0.019199 0.965848
vn 0.156435 0.000000 0.987688
vn 0.705962 -0.056885 0.705962
vn 0.705962 -0.056885 0.705962
vn 0.705962 -0.056885 0.705962
vn 0.705962 -0.056885 0.705962
vn 0.889564 0.056885 -0.453255
vn 0.889564 0.056885 -0.453255
vn 0.832983 0.132984 -0.537079
vn 0.885370 0.112308 -0.451118
vn -0.986089 0.056884 0.156181
vn -0.949478 0.057591 0.308504
vn -0.930267 0.094469 0.354511
vn -0.986089 0.056884 0.156181
vn -0.889564 0.056885 0.453256
vn -0.832983 0.132984 0.537079
vn -0.453255 0.056885 0.889564
vn -0.453255 0.056885 0.889564
vn -0.453255 0.056885 0.889564
vn -0.453255 0.056885 0.889564
vn 0.354511 0.094470 0.930267
vn 0.156181 0.056885 0.986089
vn 0.453255 0.056885 0.889564
vn 0.451118 0.112308 0.885370
vn 0.889564 0.056885 0.453255
vn 0.889564 0.056885 0.453255
vn 0.889564 0.056885 0.453255
vn 0.889564 0.056885 0.453255
vn 0.796774 0.173312 -0.578890
vn 0.877846 0.171241 -0.447285
vn 0.696662 0.171241 -0.696662
vn 0.696662 0.171241 -0.696662
vn 0.154124 0.171241 -0.973099
vn -0.000000 0.173312 -0.984867
vn 0.046089 0.209038 -0.976821
vn 0.152398 0.225702 -0.962203
vn -0.304341 0.173312 -0.936664
vn -0.304341 0.173312 -0.936664
vn -0.578890 0.173312 -0.796774
vn -0.611448 0.209038 -0.763174
vn -0.696662 0.171241 -0.696662
vn -0.688861 0.225701 -0.688861
vn -0.973099 0.171242 -0.154123
vn -0.973099 0.171242 -0.154123
vn -0.967128 0.247866 -0.056792
vn -0.962203 0.225702 -0.152398
vn -0.763174 0.209038 0.611448
vn -0.877845 0.171241 0.447285
vn -0.696662 0.171241 0.696662
vn -0.688861 0.225702 0.688861
vn -0.154123 0.171241 0.973099
vn -0.154123 0.171241 0.973100
vn -0.152398 0.225701 0.962203
vn -0.152398 0.225701 0.962203
vn 0.442276 0.225701 0.868015
vn 0.442276 0.225701 0.868015
vn 0.973099 0.171241 0.154124
vn 0.973100 0.171241 0.154124
vn 0.973100 0.171241 0.154124
vn 0.973100 0.171241 0.154124
vn 0.147057 0.341026 -0.928480
vn 0.147057 0.341026 -0.928480
vn -0.718049 0.364527 -0.592896
vn -0.664719 0.341026 -0.664718
vn -0.944677 0.325317 0.041891
vn -0.946066 0.287239 -0.149842
vn -0.946066 0.287239 0.149842
vn -0.928480 0.341026 0.147057
vn -0.664719 0.341026 0.664719
vn -0.664719 0.341026 0.664719
vn -0.149842 0.287239 0.946066
vn -0.149842 0.287239 0.946066
vn 0.434859 0.287239 0.853458
vn 0.434859 0.287239 0.853458
vn 0.853459 0.287239 0.434859
vn 0.853459 0.287239 0.434859
vn 0.853459 0.287239 0.434859
vn 0.853459 0.287239 0.434859
vn 0.646354 0.405529 -0.646354
vn 0.646354 0.405529 -0.646354
vn 0.646354 0.405529 -0.646354
vn 0.646354 0.405529 -0.646354
vn 0.142994 0.405529 -0.902828
vn 0.142994 0.405529 -0.902828
vn -0.737987 0.409740 -0.536179
vn -0.646354 0.405529 -0.646354
vn -0.814453 0.405529 -0.414985
vn -0.814453 0.405529 -0.414985
vn -0.902828 0.405530 0.142994
vn -0.902828 0.405530 0.142994
vn -0.646354 0.405529 0.646353
vn -0.646354 0.405529 0.646353
vn 0.142994 0.405529 0.902828
vn 0.142994 0.405529 0.902828
vn 0.142994 0.405529 0.902828
vn 0.142994 0.405529 0.902828
vn 0.646354 0.405529 0.646354
vn 0.646354 0.405529 0.646354
vn 0.646354 0.405529 0.646354
vn 0.646354 0.405529 0.646354
vn 0.902828 0.405529 0.142994
vn 0.902828 0.405529 0.142994
vn 0.902828 0.405529 0.142994
vn 0.902828 0.405529 0.142994
s off
g pSphere1
usemtl initialShadingGroup
f 2/147/1 3/148/2 14/149/3 13/150/4
f 4/151/5 5/152/6 16/153/7 15/154/8
f 6/183/9 7/184/10 22/185/11 21/186/12
f 8/155/13 9/156/14 24/157/15 23/158/16
s 1
f 10/45/17 11/43/18 29/39/19 28/46/20
f 11/43/18 1/44/21 12/40/22 29/39/19
s off
f 14/1/23 15/2/24 34/3/25 33/4/26
f 16/5/27 17/6/28 36/7/29 35/8/30
s 2
f 18/9/31 19/10/32 38/11/33 37/12/34
s off
f 20/15/35 21/16/36 41/17/37 40/18/38
s 3
f 22/19/39 23/20/40 43/21/41 42/22/42
s 4
f 25/31/43 26/32/44 46/33/45 45/34/46
f 26/32/44 27/35/47 47/36/48 46/33/45
s 1
f 29/39/19 12/40/22 30/41/49 49/42/50
s off
f 31/159/51 32/160/52 51/161/53 50/162/54
s 2
f 37/12/34 38/11/33 57/13/55 56/14/56
s off
f 39/47/57 40/48/58 59/49/59 58/50/60
s 3
f 41/27/61 42/22/42 61/24/62 60/28/63
f 42/22/42 43/21/41 62/23/64 61/24/62
f 43/21/41 44/25/65 63/26/66 62/23/64
s 4
f 45/34/46 46/33/45 65/37/67 64/38/68
s 5
f 47/51/69 48/52/70 67/53/71 66/54/72
f 48/52/70 49/55/73 68/56/74 67/53/71
s 6
f 52/57/75 53/58/76 72/59/77 71/60/78
f 53/58/76 54/61/79 73/62/80 72/59/77
s off
f 55/163/81 56/164/82 75/165/83 74/166/84
s 3
f 60/28/63 61/24/62 79/29/85 78/30/86
s 7
f 63/63/87 64/64/88 82/65/89 81/66/90
s off
f 65/167/91 66/168/92 84/169/93 83/170/94
s 8
f 69/75/95 70/76/96 87/77/97 86/78/98
s 9
f 76/83/99 77/84/100 96/85/101 95/86/102
f 77/84/100 78/87/103 97/88/104 96/85/101
s off
f 79/97/105 80/98/106 99/99/107 98/100/108
s 7
f 81/66/90 82/65/89 101/67/109 100/68/110
f 82/65/89 83/69/111 102/70/112 101/67/109
s off
f 84/101/113 85/102/114 104/103/115 103/104/116
s 8
f 86/78/98 87/77/97 107/79/117 106/80/118
f 87/77/97 88/81/119 108/82/120 107/79/117
s 10
f 89/105/121 90/106/122 110/107/123 109/108/124
f 90/106/122 91/109/125 111/110/126 110/107/123
f 91/109/125 92/113/127 112/114/128 111/110/126
f 92/113/127 93/117/129 113/118/130 112/114/128
s 11
f 94/123/131 95/124/132 115/125/133 114/126/134
s 9
f 96/85/101 97/88/104 117/89/135 116/90/136
f 97/88/104 98/91/137 118/92/138 117/89/135
s 12
f 99/133/139 100/134/140 120/135/141 119/136/142
s 7
f 101/67/109 102/70/112 122/71/143 121/72/144
s off
f 104/139/145 105/140/146 125/141/147 124/142/148
s 10
f 109/108/124 110/107/123 129/111/149 128/112/150
f 112/114/128 113/118/130 131/119/151 130/120/152
s 11
f 114/126/134 115/125/133 133/127/153 132/128/154
f 115/125/133 116/129/155 134/130/156 133/127/153
s 9
f 117/89/135 118/92/138 136/93/157 135/94/158
s 12
f 119/136/142 120/135/141 138/137/159 137/138/160
s 7
f 121/72/144 122/71/143 140/73/161 139/74/162
s off
f 123/143/163 124/144/164 142/145/165 141/146/166
f 126/187/167 127/188/168 145/189/169 144/190/170
s 10
f 128/112/150 129/111/149 147/115/171 146/116/172
f 130/120/152 131/119/151 149/121/173 148/122/174
f 131/171/151 132/172/175 150/173/176 149/174/173
s 11
f 133/127/153 134/130/156 152/131/177 151/132/178
s 9
f 135/94/158 136/93/157 154/95/179 153/96/180
s off
f 138/175/181 139/176/182 156/177/183 155/178/184
f 140/191/185 141/192/186 158/193/187 157/194/188
f 142/179/189 143/180/190 160/181/191 159/182/192
