# This file uses centimeters as units for non-parametric coordinates.

mtllib LowerHydraulic.mtl
g default
v 0.500000 3.475000 0.525000
v 0.500000 4.525000 0.525000
v -0.500000 3.475000 0.525000
v -0.500000 4.525000 0.525000
v -0.500000 3.475000 -0.525000
v -0.500000 4.525000 -0.525000
v 0.500000 3.475000 -0.525000
v 0.500000 4.525000 -0.525000
v 0.323607 0.000000 -0.235114
v 0.123607 0.000000 -0.380423
v -0.123607 0.000000 -0.380423
v -0.323607 0.000000 -0.235114
v -0.400000 0.000000 0.000000
v -0.323607 0.000000 0.235114
v -0.123607 0.000000 0.380423
v 0.123607 0.000000 0.380423
v 0.323607 0.000000 0.235114
v 0.400000 0.000000 0.000000
v 0.323607 4.000000 -0.235114
v 0.123607 4.000000 -0.380423
v -0.123607 4.000000 -0.380423
v -0.323607 4.000000 -0.235114
v -0.400000 4.000000 0.000000
v -0.323607 4.000000 0.235114
v -0.123607 4.000000 0.380423
v 0.123607 4.000000 0.380423
v 0.323607 4.000000 0.235114
v 0.400000 4.000000 0.000000
v 0.000000 0.000000 0.000000
v 0.000000 4.000000 0.000000
v 0.600000 0.647213 -0.470228
v 0.600000 0.247213 -0.760845
v 0.600000 -0.247214 -0.760845
v 0.600001 -0.647214 -0.470228
v 0.600000 -0.800000 0.000000
v 0.600000 -0.647214 0.470228
v 0.600000 -0.247214 0.760845
v 0.600000 0.247214 0.760845
v 0.600000 0.647214 0.470228
v 0.600000 0.800000 0.000000
v -0.600000 0.647214 -0.470228
v -0.600000 0.247214 -0.760845
v -0.600000 -0.247213 -0.760845
v -0.600000 -0.647214 -0.470228
v -0.600000 -0.800000 0.000000
v -0.600000 -0.647213 0.470228
v -0.600000 -0.247213 0.760845
v -0.600000 0.247214 0.760845
v -0.600001 0.647214 0.470228
v -0.600000 0.800000 -0.000000
v 0.600000 -0.000000 0.000000
v -0.600000 0.000000 0.000000
vt 0.936500 0.010948
vt 0.965333 0.010948
vt 0.965333 0.554628
vt 0.936500 0.554628
vt 0.994166 0.010948
vt 0.994166 0.554628
vt 0.705834 0.010948
vt 0.734667 0.010948
vt 0.734667 0.554628
vt 0.705834 0.554628
vt 0.763500 0.010948
vt 0.763500 0.554628
vt 0.792334 0.010948
vt 0.792334 0.554628
vt 0.821167 0.010948
vt 0.821167 0.554628
vt 0.850000 0.010948
vt 0.850000 0.554628
vt 0.878833 0.010948
vt 0.878833 0.554628
vt 0.907666 0.010948
vt 0.907666 0.554628
vt 0.059240 0.770510
vt 0.093907 0.722795
vt 0.150000 0.800000
vt 0.059240 0.829490
vt 0.093907 0.877205
vt 0.150000 0.895430
vt 0.206093 0.877205
vt 0.240760 0.829490
vt 0.240760 0.770510
vt 0.206093 0.722795
vt 0.150000 0.704570
vt 0.206093 0.722795
vt 0.240760 0.770510
vt 0.150000 0.800000
vt 0.240760 0.829490
vt 0.206093 0.877205
vt 0.150000 0.895430
vt 0.093907 0.877205
vt 0.059240 0.829490
vt 0.059240 0.770510
vt 0.093907 0.722795
vt 0.150000 0.704570
vt 0.593146 0.645590
vt 0.593146 0.741021
vt 0.306855 0.741021
vt 0.306855 0.645590
vt 0.593146 0.858979
vt 0.306855 0.858979
vt 0.593146 0.954410
vt 0.306855 0.954410
vt 0.593145 0.653148
vt 0.593145 0.765333
vt 0.306854 0.765333
vt 0.306854 0.653148
vt 0.593145 0.877518
vt 0.306854 0.877518
vt 0.593145 0.946852
vt 0.306854 0.946852
vt 0.306854 0.906694
vt 0.306854 0.788736
vt 0.593145 0.788736
vt 0.593145 0.906694
vt 0.306854 0.693306
vt 0.593146 0.693305
vt 0.306855 0.912185
vt 0.306855 0.800000
vt 0.593146 0.800000
vt 0.593145 0.912185
vt 0.306855 0.687815
vt 0.593146 0.687815
vt 0.981519 0.858979
vt 0.912185 0.954410
vt 0.800000 0.800000
vt 0.981519 0.741021
vt 0.912185 0.645590
vt 0.800000 0.609139
vt 0.687815 0.645591
vt 0.618481 0.741021
vt 0.618481 0.858979
vt 0.687815 0.954410
vt 0.800000 0.990861
vt 0.687815 0.954410
vt 0.618481 0.858979
vt 0.800000 0.800000
vt 0.618481 0.741021
vt 0.687815 0.645590
vt 0.800000 0.609139
vt 0.912185 0.645591
vt 0.981519 0.741021
vt 0.981519 0.858979
vt 0.912185 0.954410
vt 0.800000 0.990861
vt 0.257520 0.214427
vt 0.257520 0.364850
vt 0.114260 0.364850
vt 0.114260 0.214427
vt 0.431947 0.072642
vt 0.431947 0.223066
vt 0.281523 0.223066
vt 0.281523 0.072642
vt 0.421629 0.375212
vt 0.421629 0.224788
vt 0.564890 0.224788
vt 0.564890 0.375212
vt 0.418982 0.224788
vt 0.418982 0.375212
vt 0.268558 0.375212
vt 0.268558 0.224788
vt 0.278371 0.376934
vt 0.278371 0.527358
vt 0.135110 0.527358
vt 0.135110 0.376934
vt 0.424784 0.376934
vt 0.424784 0.527358
vt 0.281523 0.527358
vt 0.281523 0.376934
vn 0.000000 0.000000 1.000000
vn 0.000000 0.000000 1.000000
vn 0.000000 0.000000 1.000000
vn 0.000000 0.000000 1.000000
vn -1.000000 0.000000 0.000000
vn -1.000000 0.000000 0.000000
vn -1.000000 0.000000 0.000000
vn -1.000000 0.000000 0.000000
vn 0.000000 0.000000 -1.000000
vn 0.000000 0.000000 -1.000000
vn 0.000000 0.000000 -1.000000
vn 0.000000 0.000000 -1.000000
vn 1.000000 0.000000 0.000000
vn 1.000000 0.000000 0.000000
vn 1.000000 0.000000 0.000000
vn 1.000000 0.000000 0.000000
vn 0.000000 1.000000 0.000000
vn 0.000000 1.000000 0.000000
vn 0.000000 1.000000 0.000000
vn 0.000000 1.000000 0.000000
vn 0.000000 -1.000000 0.000000
vn 0.000000 -1.000000 0.000000
vn 0.000000 -1.000000 0.000000
vn 0.000000 -1.000000 0.000000
vn 0.587785 0.000000 -0.809017
vn 0.587785 0.000000 -0.809017
vn 0.587785 0.000000 -0.809017
vn 0.587785 0.000000 -0.809017
vn -0.000000 0.000000 -1.000000
vn -0.000000 0.000000 -1.000000
vn -0.000000 0.000000 -1.000000
vn -0.000000 0.000000 -1.000000
vn -0.587785 0.000000 -0.809017
vn -0.587785 0.000000 -0.809017
vn -0.587785 0.000000 -0.809017
vn -0.587785 0.000000 -0.809017
vn -0.951057 0.000000 -0.309017
vn -0.951057 0.000000 -0.309017
vn -0.951057 0.000000 -0.309017
vn -0.951057 0.000000 -0.309017
vn -0.951056 0.000000 0.309017
vn -0.951056 0.000000 0.309017
vn -0.951056 0.000000 0.309017
vn -0.951056 0.000000 0.309017
vn -0.587785 0.000000 0.809017
vn -0.587785 0.000000 0.809017
vn -0.587785 0.000000 0.809017
vn -0.587785 0.000000 0.809017
vn 0.000000 0.000000 1.000000
vn 0.000000 0.000000 1.000000
vn 0.000000 0.000000 1.000000
vn 0.000000 0.000000 1.000000
vn 0.587785 0.000000 0.809017
vn 0.587785 0.000000 0.809017
vn 0.587785 0.000000 0.809017
vn 0.587785 0.000000 0.809017
vn 0.951057 0.000000 0.309017
vn 0.951057 0.000000 0.309017
vn 0.951057 0.000000 0.309017
vn 0.951057 0.000000 0.309017
vn 0.951057 0.000000 -0.309017
vn 0.951057 0.000000 -0.309017
vn 0.951057 0.000000 -0.309017
vn 0.951057 0.000000 -0.309017
vn 0.000000 -1.000000 0.000000
vn 0.000000 -1.000000 0.000000
vn 0.000000 -1.000000 0.000000
vn 0.000000 -1.000000 0.000000
vn 0.000000 -1.000000 0.000000
vn 0.000000 -1.000000 0.000000
vn 0.000000 -1.000000 0.000000
vn 0.000000 -1.000000 0.000000
vn 0.000000 -1.000000 0.000000
vn 0.000000 -1.000000 0.000000
vn 0.000000 -1.000000 0.000000
vn 0.000000 1.000000 0.000000
vn 0.000000 1.000000 -0.000000
vn 0.000000 1.000000 -0.000000
vn 0.000000 1.000000 -0.000000
vn 0.000000 1.000000 0.000000
vn 0.000000 1.000000 0.000000
vn 0.000000 1.000000 0.000000
vn 0.000000 1.000000 0.000000
vn 0.000000 1.000000 0.000000
vn 0.000000 1.000000 0.000000
vn 0.000000 1.000000 0.000000
vn 0.000000 0.587785 -0.809017
vn 0.000000 0.587785 -0.809017
vn 0.000000 0.587785 -0.809017
vn 0.000000 0.587785 -0.809017
vn 0.000000 -0.000000 -1.000000
vn 0.000000 -0.000000 -1.000000
vn 0.000000 -0.000000 -1.000000
vn 0.000000 -0.000000 -1.000000
vn -0.000000 -0.587785 -0.809017
vn -0.000000 -0.587785 -0.809017
vn -0.000000 -0.587785 -0.809017
vn -0.000000 -0.587785 -0.809017
vn 0.000000 -0.951057 -0.309017
vn 0.000000 -0.951057 -0.309017
vn 0.000000 -0.951057 -0.309017
vn 0.000000 -0.951057 -0.309017
vn -0.000000 -0.951056 0.309018
vn -0.000000 -0.951056 0.309018
vn -0.000000 -0.951056 0.309018
vn -0.000000 -0.951056 0.309018
vn -0.000000 -0.587786 0.809017
vn -0.000000 -0.587786 0.809017
vn -0.000000 -0.587786 0.809017
vn -0.000000 -0.587785 0.809017
vn 0.000000 0.000000 1.000000
vn 0.000000 0.000000 1.000000
vn 0.000000 0.000000 1.000000
vn 0.000000 0.000000 1.000000
vn 0.000000 0.587785 0.809017
vn 0.000000 0.587785 0.809017
vn 0.000000 0.587785 0.809017
vn 0.000000 0.587785 0.809017
vn -0.000000 0.951057 0.309017
vn -0.000000 0.951057 0.309017
vn -0.000000 0.951057 0.309017
vn -0.000000 0.951057 0.309017
vn 0.000000 0.951056 -0.309018
vn 0.000000 0.951056 -0.309018
vn 0.000000 0.951056 -0.309018
vn 0.000000 0.951056 -0.309018
vn 1.000000 0.000000 0.000000
vn 1.000000 0.000000 0.000000
vn 1.000000 0.000000 0.000000
vn 1.000000 0.000001 -0.000000
vn 1.000000 0.000001 0.000000
vn 1.000000 0.000000 0.000001
vn 1.000000 -0.000000 0.000000
vn 1.000000 -0.000000 -0.000000
vn 1.000000 0.000000 0.000000
vn 1.000000 0.000000 0.000000
vn 1.000000 0.000000 -0.000000
vn -1.000000 0.000000 -0.000000
vn -1.000000 0.000000 0.000000
vn -1.000000 -0.000000 -0.000000
vn -1.000000 0.000000 -0.000000
vn -1.000000 0.000000 0.000000
vn -1.000000 0.000000 0.000000
vn -1.000000 -0.000000 0.000000
vn -1.000000 0.000000 0.000000
vn -1.000000 -0.000001 0.000000
vn -1.000000 -0.000001 -0.000001
vn -1.000000 0.000000 -0.000001
s off
g pCube2
usemtl initialShadingGroup
f 1/95/1 2/96/2 4/97/3 3/98/4
f 3/99/5 4/100/6 6/101/7 5/102/8
f 5/103/9 6/104/10 8/105/11 7/106/12
f 7/107/13 8/108/14 2/109/15 1/110/16
f 2/111/17 8/112/18 6/113/19 4/114/20
f 7/115/21 1/116/22 3/117/23 5/118/24
f 9/1/25 10/2/26 20/3/27 19/4/28
f 10/2/29 11/5/30 21/6/31 20/3/32
f 11/7/33 12/8/34 22/9/35 21/10/36
f 12/8/37 13/11/38 23/12/39 22/9/40
f 13/11/41 14/13/42 24/14/43 23/12/44
f 14/13/45 15/15/46 25/16/47 24/14/48
f 15/15/49 16/17/50 26/18/51 25/16/52
f 16/17/53 17/19/54 27/20/55 26/18/56
f 17/19/57 18/21/58 28/22/59 27/20/60
f 18/21/61 9/1/62 19/4/63 28/22/64
s 1
f 10/23/65 9/24/66 29/25/67
f 11/26/68 10/23/65 29/25/67
f 12/27/69 11/26/68 29/25/67
f 13/28/70 12/27/69 29/25/67
f 14/29/71 13/28/70 29/25/67
f 15/30/72 14/29/71 29/25/67
f 16/31/73 15/30/72 29/25/67
f 17/32/74 16/31/73 29/25/67
f 18/33/75 17/32/74 29/25/67
f 9/24/66 18/33/75 29/25/67
s 2
f 19/34/76 20/35/77 30/36/78
f 20/35/77 21/37/79 30/36/78
f 21/37/79 22/38/80 30/36/78
f 22/38/80 23/39/81 30/36/78
f 23/39/81 24/40/82 30/36/78
f 24/40/82 25/41/83 30/36/78
f 25/41/83 26/42/84 30/36/78
f 26/42/84 27/43/85 30/36/78
f 27/43/85 28/44/86 30/36/78
f 28/44/86 19/34/76 30/36/78
s off
f 31/45/87 32/46/88 42/47/89 41/48/90
f 32/46/91 33/49/92 43/50/93 42/47/94
f 33/49/95 34/51/96 44/52/97 43/50/98
f 34/53/99 35/54/100 45/55/101 44/56/102
f 35/54/103 36/57/104 46/58/105 45/55/106
f 36/57/107 37/59/108 47/60/109 46/58/110
f 37/61/111 38/62/112 48/63/113 47/64/114
f 38/62/115 39/65/116 49/66/117 48/63/118
f 39/67/119 40/68/120 50/69/121 49/70/122
f 40/68/123 31/71/124 41/72/125 50/69/126
s 3
f 32/73/127 31/74/128 51/75/129
f 33/76/130 32/73/127 51/75/129
f 34/77/131 33/76/130 51/75/129
f 35/78/132 34/77/131 51/75/129
f 36/79/133 35/78/132 51/75/129
f 37/80/134 36/79/133 51/75/129
f 38/81/135 37/80/134 51/75/129
f 39/82/136 38/81/135 51/75/129
f 40/83/137 39/82/136 51/75/129
f 31/74/128 40/83/137 51/75/129
s 4
f 41/84/138 42/85/139 52/86/140
f 42/85/139 43/87/141 52/86/140
f 43/87/141 44/88/142 52/86/140
f 44/88/142 45/89/143 52/86/140
f 45/89/143 46/90/144 52/86/140
f 46/90/144 47/91/145 52/86/140
f 47/91/145 48/92/146 52/86/140
f 48/92/146 49/93/147 52/86/140
f 49/93/147 50/94/148 52/86/140
f 50/94/148 41/84/138 52/86/140
