# This file uses centimeters as units for non-parametric coordinates.

mtllib Orange_Can.mtl
g default
v 0.144155 -0.320000 -0.069421
v 0.099758 -0.320000 -0.125093
v 0.035603 -0.320000 -0.155988
v -0.035603 -0.320000 -0.155988
v -0.099758 -0.320000 -0.125093
v -0.144155 -0.320000 -0.069421
v -0.160000 -0.320000 -0.000000
v -0.144155 -0.320000 0.069421
v -0.099758 -0.320000 0.125093
v -0.035603 -0.320000 0.155988
v 0.035603 -0.320000 0.155988
v 0.099758 -0.320000 0.125093
v 0.144155 -0.320000 0.069421
v 0.160000 -0.320000 0.000000
v 0.144155 0.320000 -0.069421
v 0.099758 0.320000 -0.125093
v 0.035603 0.320000 -0.155988
v -0.035603 0.320000 -0.155988
v -0.099758 0.320000 -0.125093
v -0.144155 0.320000 -0.069421
v -0.160000 0.320000 -0.000000
v -0.144155 0.320000 0.069421
v -0.099758 0.320000 0.125093
v -0.035603 0.320000 0.155988
v 0.035603 0.320000 0.155988
v 0.099758 0.320000 0.125093
v 0.144155 0.320000 0.069421
v 0.160000 0.320000 0.000000
v 0.000000 -0.320000 0.000000
v 0.000000 0.320000 0.000000
vt 0.966945 0.649751
vt 0.902833 0.569358
vt 0.810189 0.524743
vt 0.707363 0.524743
vt 0.614719 0.569358
vt 0.550607 0.649751
vt 0.527726 0.750000
vt 0.550607 0.850249
vt 0.614719 0.930642
vt 0.707363 0.975257
vt 0.810189 0.975257
vt 0.902833 0.930642
vt 0.966945 0.850249
vt 0.989826 0.750000
vt 0.781446 0.011517
vt 0.851808 0.011517
vt 0.851808 0.504047
vt 0.781446 0.504047
vt 0.922169 0.504047
vt 0.007469 0.011517
vt 0.007469 0.504047
vt 0.077831 0.011517
vt 0.077831 0.504047
vt 0.148192 0.011517
vt 0.148192 0.504047
vt 0.218554 0.011517
vt 0.218554 0.504047
vt 0.288915 0.011517
vt 0.288915 0.504047
vt 0.359277 0.011517
vt 0.359277 0.504047
vt 0.429638 0.011517
vt 0.429638 0.504047
vt 0.500000 0.011517
vt 0.500000 0.504047
vt 0.570361 0.011517
vt 0.570361 0.504047
vt 0.640723 0.011517
vt 0.640723 0.504047
vt 0.711085 0.011517
vt 0.711085 0.504047
vt 0.241224 0.740758
vt 0.758776 0.740758
vt 0.449393 0.649751
vt 0.385281 0.569358
vt 0.292637 0.524743
vt 0.189811 0.524743
vt 0.097167 0.569358
vt 0.033055 0.649751
vt 0.010174 0.750000
vt 0.033055 0.850249
vt 0.097167 0.930642
vt 0.189811 0.975257
vt 0.292637 0.975257
vt 0.385281 0.930642
vt 0.449393 0.850249
vt 0.472274 0.750000
vt 0.922169 0.011517
vt 0.992531 0.011517
vt 0.992531 0.504047
vn 0.900969 0.000000 -0.433884
vn 0.623490 0.000000 -0.781831
vn 0.623490 0.000000 -0.781831
vn 0.900969 0.000000 -0.433884
vn 0.222521 0.000000 -0.974928
vn 0.222521 0.000000 -0.974928
vn -0.222521 0.000000 -0.974928
vn -0.222521 0.000000 -0.974928
vn -0.623490 0.000000 -0.781832
vn -0.623490 0.000000 -0.781832
vn -0.900969 0.000000 -0.433884
vn -0.900969 0.000000 -0.433884
vn -1.000000 0.000000 -0.000000
vn -1.000000 0.000000 -0.000000
vn -0.900969 0.000000 0.433884
vn -0.900969 0.000000 0.433884
vn -0.623490 0.000000 0.781831
vn -0.623490 0.000000 0.781831
vn -0.222521 0.000000 0.974928
vn -0.222521 0.000000 0.974928
vn 0.222521 0.000000 0.974928
vn 0.222521 0.000000 0.974928
vn 0.623490 0.000000 0.781832
vn 0.623490 0.000000 0.781832
vn 0.900969 0.000000 0.433884
vn 0.900969 0.000000 0.433884
vn 1.000000 0.000000 0.000000
vn 1.000000 0.000000 0.000000
vn 0.000000 -1.000000 -0.000000
vn 0.000000 -1.000000 -0.000000
vn 0.000000 -1.000000 -0.000000
vn 0.000000 -1.000000 -0.000000
vn 0.000000 -1.000000 -0.000000
vn 0.000000 -1.000000 0.000000
vn 0.000000 -1.000000 0.000000
vn 0.000000 -1.000000 0.000000
vn 0.000000 -1.000000 0.000000
vn 0.000000 -1.000000 -0.000000
vn 0.000000 -1.000000 0.000000
vn 0.000000 -1.000000 0.000000
vn 0.000000 -1.000000 0.000000
vn 0.000000 -1.000000 0.000000
vn 0.000000 -1.000000 0.000000
vn 0.000000 1.000000 0.000000
vn 0.000000 1.000000 0.000000
vn 0.000000 1.000000 -0.000000
vn 0.000000 1.000000 -0.000000
vn 0.000000 1.000000 0.000000
vn 0.000000 1.000000 0.000000
vn 0.000000 1.000000 -0.000000
vn 0.000000 1.000000 -0.000000
vn 0.000000 1.000000 0.000000
vn 0.000000 1.000000 0.000000
vn 0.000000 1.000000 0.000000
vn 0.000000 1.000000 0.000000
vn 0.000000 1.000000 0.000000
vn 0.000000 1.000000 0.000000
vn 0.000000 1.000000 0.000000
s 1
g pCylinder1
usemtl initialShadingGroup
f 1/15/1 2/16/2 16/17/3 15/18/4
f 2/16/2 3/58/5 17/19/6 16/17/3
f 3/58/5 4/59/7 18/60/8 17/19/6
f 4/20/7 5/22/9 19/23/10 18/21/8
f 5/22/9 6/24/11 20/25/12 19/23/10
f 6/24/11 7/26/13 21/27/14 20/25/12
f 7/26/13 8/28/15 22/29/16 21/27/14
f 8/28/15 9/30/17 23/31/18 22/29/16
f 9/30/17 10/32/19 24/33/20 23/31/18
f 10/32/19 11/34/21 25/35/22 24/33/20
f 11/34/21 12/36/23 26/37/24 25/35/22
f 12/36/23 13/38/25 27/39/26 26/37/24
f 13/38/25 14/40/27 28/41/28 27/39/26
f 14/40/27 1/15/1 15/18/4 28/41/28
s 2
f 2/2/29 1/1/30 29/43/31
f 3/3/32 2/2/29 29/43/31
f 4/4/33 3/3/32 29/43/31
f 5/5/34 4/4/33 29/43/31
f 6/6/35 5/5/34 29/43/31
f 7/7/36 6/6/35 29/43/31
f 8/8/37 7/7/36 29/43/31
f 9/9/38 8/8/37 29/43/31
f 10/10/39 9/9/38 29/43/31
f 11/11/40 10/10/39 29/43/31
f 12/12/41 11/11/40 29/43/31
f 13/13/42 12/12/41 29/43/31
f 14/14/43 13/13/42 29/43/31
f 1/1/30 14/14/43 29/43/31
s 3
f 15/56/44 16/55/45 30/42/46
f 16/55/45 17/54/47 30/42/46
f 17/54/47 18/53/48 30/42/46
f 18/53/48 19/52/49 30/42/46
f 19/52/49 20/51/50 30/42/46
f 20/51/50 21/50/51 30/42/46
f 21/50/51 22/49/52 30/42/46
f 22/49/52 23/48/53 30/42/46
f 23/48/53 24/47/54 30/42/46
f 24/47/54 25/46/55 30/42/46
f 25/46/55 26/45/56 30/42/46
f 26/45/56 27/44/57 30/42/46
f 27/44/57 28/57/58 30/42/46
f 28/57/58 15/56/44 30/42/46
