# This file uses centimeters as units for non-parametric coordinates.

mtllib PanelP2.mtl
g default
v -4.000000 0.000000 -4.000000
v 4.000000 0.000000 -4.000000
v -4.000000 -4.000000 -4.000000
v 4.000000 -4.000000 -4.000000
v -4.000000 -4.000000 4.000000
v 4.000000 -4.000000 4.000000
v -4.000000 0.000000 4.000000
v 4.000000 0.000000 4.000000
v -0.400000 -3.900000 -3.700000
v 0.400000 -3.900000 -3.700000
v -0.400000 -0.700000 -3.700000
v 0.400000 -0.700000 -3.700000
v -0.400000 -0.700000 -3.900000
v 0.400000 -0.700000 -3.900000
v -0.400000 -3.900000 -3.900000
v 0.400000 -3.900000 -3.900000
v 3.900000 -3.900000 0.400000
v 3.900000 -3.900000 -0.400000
v 3.900000 -0.700000 0.400000
v 3.900000 -0.700000 -0.400000
v 3.700000 -0.700000 0.400000
v 3.700000 -0.700000 -0.400000
v 3.700000 -3.900000 0.400000
v 3.700000 -3.900000 -0.400000
v -3.700000 -3.900000 0.400000
v -3.700000 -3.900000 -0.400000
v -3.700000 -0.700000 0.400000
v -3.700000 -0.700000 -0.400000
v -3.900000 -0.700000 0.400000
v -3.900000 -0.700000 -0.400000
v -3.900000 -3.900000 0.400000
v -3.900000 -3.900000 -0.400000
v -0.500000 -2.500000 3.700000
v 0.500000 -2.500000 3.700000
v -0.500000 -2.500000 4.100000
v 0.500000 -2.500000 4.100000
v -0.500000 -1.500000 4.100000
v 0.500000 -1.500000 4.100000
v -0.500000 -1.500000 3.700000
v 0.500000 -1.500000 3.700000
vt 0.988034 0.748595
vt 0.668363 0.748595
vt 0.668363 0.109253
vt 0.988034 0.109253
vt 0.011966 0.748595
vt 0.011966 0.109253
vt 0.651308 0.109253
vt 0.651308 0.748595
vt 0.988034 0.748595
vt 0.668363 0.748595
vt 0.668363 0.109253
vt 0.988034 0.109253
vt 0.988034 0.748595
vt 0.668363 0.748595
vt 0.668363 0.109253
vt 0.988034 0.109253
vt 0.988034 0.748595
vt 0.668363 0.748595
vt 0.668363 0.109253
vt 0.988034 0.109253
vt 0.538720 0.882755
vt 0.538720 0.818821
vt 0.794457 0.818821
vt 0.794457 0.882755
vt 0.698555 0.858780
vt 0.634621 0.858780
vt 0.634621 0.842797
vt 0.698555 0.842797
vt 0.538720 0.882756
vt 0.538720 0.818821
vt 0.794457 0.818821
vt 0.794457 0.882755
vt 0.698555 0.858780
vt 0.634621 0.858780
vt 0.634621 0.842796
vt 0.698555 0.842796
vt 0.538720 0.858780
vt 0.538720 0.842796
vt 0.794457 0.842796
vt 0.794457 0.858780
vt 0.538720 0.858780
vt 0.538720 0.842796
vt 0.794456 0.842796
vt 0.794456 0.858780
vt 0.538720 0.882756
vt 0.538719 0.818821
vt 0.794456 0.818821
vt 0.794456 0.882755
vt 0.634621 0.842796
vt 0.698555 0.842796
vt 0.698555 0.858780
vt 0.634621 0.858780
vt 0.794456 0.818821
vt 0.794456 0.882755
vt 0.538719 0.882756
vt 0.538719 0.818821
vt 0.698555 0.858780
vt 0.634621 0.858780
vt 0.634621 0.842797
vt 0.698555 0.842796
vt 0.794456 0.842796
vt 0.794457 0.858780
vt 0.538720 0.858780
vt 0.538719 0.842796
vt 0.538720 0.858780
vt 0.538720 0.842797
vt 0.794457 0.842797
vt 0.794456 0.858780
vt 0.538720 0.882755
vt 0.538719 0.818821
vt 0.794456 0.818821
vt 0.794456 0.882755
vt 0.634621 0.842796
vt 0.698555 0.842797
vt 0.698555 0.858780
vt 0.634621 0.858780
vt 0.794456 0.818821
vt 0.794456 0.882755
vt 0.538720 0.882756
vt 0.538720 0.818821
vt 0.698555 0.858780
vt 0.634621 0.858780
vt 0.634621 0.842797
vt 0.698555 0.842797
vt 0.794457 0.842797
vt 0.794456 0.858780
vt 0.538720 0.858780
vt 0.538720 0.842797
vt 0.538719 0.858780
vt 0.538719 0.842797
vt 0.794456 0.842796
vt 0.794456 0.858780
vt 0.426143 0.890747
vt 0.426143 0.810829
vt 0.458110 0.810829
vt 0.458110 0.890747
vt 0.334610 0.890747
vt 0.334610 0.810829
vt 0.414528 0.810829
vt 0.414528 0.890747
vt 0.426143 0.890747
vt 0.426143 0.810829
vt 0.458110 0.810829
vt 0.458110 0.890747
vt 0.334610 0.890747
vt 0.334610 0.810829
vt 0.414528 0.810829
vt 0.414528 0.890747
vt 0.458110 0.810829
vt 0.458110 0.890747
vt 0.426143 0.890747
vt 0.426143 0.810829
vt 0.426143 0.890747
vt 0.426143 0.810829
vt 0.458110 0.810829
vt 0.458110 0.890747
vn 0.000000 0.000000 1.000000
vn 0.000000 0.000000 1.000000
vn 0.000000 0.000000 1.000000
vn 0.000000 0.000000 1.000000
vn 0.000000 1.000000 0.000000
vn 0.000000 1.000000 0.000000
vn 0.000000 1.000000 0.000000
vn 0.000000 1.000000 0.000000
vn 0.000000 0.000000 -1.000000
vn 0.000000 0.000000 -1.000000
vn 0.000000 0.000000 -1.000000
vn 0.000000 0.000000 -1.000000
vn -1.000000 0.000000 0.000000
vn -1.000000 0.000000 0.000000
vn -1.000000 0.000000 0.000000
vn -1.000000 0.000000 0.000000
vn 1.000000 0.000000 0.000000
vn 1.000000 0.000000 0.000000
vn 1.000000 0.000000 0.000000
vn 1.000000 0.000000 0.000000
vn 0.000000 0.000000 1.000000
vn 0.000000 0.000000 1.000000
vn 0.000000 0.000000 1.000000
vn 0.000000 0.000000 1.000000
vn 0.000000 1.000000 0.000000
vn 0.000000 1.000000 0.000000
vn 0.000000 1.000000 0.000000
vn 0.000000 1.000000 0.000000
vn 0.000000 0.000000 -1.000000
vn 0.000000 0.000000 -1.000000
vn 0.000000 0.000000 -1.000000
vn 0.000000 0.000000 -1.000000
vn 0.000000 -1.000000 0.000000
vn 0.000000 -1.000000 0.000000
vn 0.000000 -1.000000 0.000000
vn 0.000000 -1.000000 0.000000
vn 1.000000 0.000000 0.000000
vn 1.000000 0.000000 0.000000
vn 1.000000 0.000000 0.000000
vn 1.000000 0.000000 0.000000
vn -1.000000 0.000000 0.000000
vn -1.000000 0.000000 0.000000
vn -1.000000 0.000000 0.000000
vn -1.000000 0.000000 0.000000
vn 1.000000 0.000000 0.000000
vn 1.000000 0.000000 0.000000
vn 1.000000 0.000000 0.000000
vn 1.000000 0.000000 0.000000
vn 0.000000 1.000000 0.000000
vn 0.000000 1.000000 0.000000
vn 0.000000 1.000000 0.000000
vn 0.000000 1.000000 0.000000
vn -1.000000 0.000000 0.000000
vn -1.000000 0.000000 0.000000
vn -1.000000 0.000000 0.000000
vn -1.000000 0.000000 0.000000
vn 0.000000 -1.000000 0.000000
vn 0.000000 -1.000000 0.000000
vn 0.000000 -1.000000 0.000000
vn 0.000000 -1.000000 0.000000
vn 0.000000 0.000000 -1.000000
vn 0.000000 0.000000 -1.000000
vn 0.000000 0.000000 -1.000000
vn 0.000000 0.000000 -1.000000
vn 0.000000 0.000000 1.000000
vn 0.000000 0.000000 1.000000
vn 0.000000 0.000000 1.000000
vn 0.000000 0.000000 1.000000
vn 1.000000 0.000000 0.000000
vn 1.000000 0.000000 0.000000
vn 1.000000 0.000000 0.000000
vn 1.000000 0.000000 0.000000
vn 0.000000 1.000000 0.000000
vn 0.000000 1.000000 0.000000
vn 0.000000 1.000000 0.000000
vn 0.000000 1.000000 0.000000
vn -1.000000 0.000000 0.000000
vn -1.000000 0.000000 0.000000
vn -1.000000 0.000000 0.000000
vn -1.000000 0.000000 0.000000
vn 0.000000 -1.000000 0.000000
vn 0.000000 -1.000000 0.000000
vn 0.000000 -1.000000 0.000000
vn 0.000000 -1.000000 0.000000
vn 0.000000 0.000000 -1.000000
vn 0.000000 0.000000 -1.000000
vn 0.000000 0.000000 -1.000000
vn 0.000000 0.000000 -1.000000
vn 0.000000 0.000000 1.000000
vn 0.000000 0.000000 1.000000
vn 0.000000 0.000000 1.000000
vn 0.000000 0.000000 1.000000
vn 0.000000 -1.000000 0.000000
vn 0.000000 -1.000000 0.000000
vn 0.000000 -1.000000 0.000000
vn 0.000000 -1.000000 0.000000
vn 0.000000 0.000000 1.000000
vn 0.000000 0.000000 1.000000
vn 0.000000 0.000000 1.000000
vn 0.000000 0.000000 1.000000
vn 0.000000 1.000000 0.000000
vn 0.000000 1.000000 0.000000
vn 0.000000 1.000000 0.000000
vn 0.000000 1.000000 0.000000
vn 0.000000 0.000000 -1.000000
vn 0.000000 0.000000 -1.000000
vn 0.000000 0.000000 -1.000000
vn 0.000000 0.000000 -1.000000
vn 1.000000 0.000000 0.000000
vn 1.000000 0.000000 0.000000
vn 1.000000 0.000000 0.000000
vn 1.000000 0.000000 0.000000
vn -1.000000 0.000000 0.000000
vn -1.000000 0.000000 0.000000
vn -1.000000 0.000000 0.000000
vn -1.000000 0.000000 0.000000
s off
g HOLE1
usemtl lambert2SG
f 1/1/1 3/2/2 4/3/3 2/4/4
f 3/5/5 5/6/6 6/7/7 4/8/8
f 5/9/9 7/10/10 8/11/11 6/12/12
f 2/13/13 4/14/14 6/15/15 8/16/16
f 7/17/17 5/18/18 3/19/19 1/20/20
f 9/21/21 10/22/22 12/23/23 11/24/24
f 11/25/25 12/26/26 14/27/27 13/28/28
f 13/29/29 14/30/30 16/31/31 15/32/32
f 15/33/33 16/34/34 10/35/35 9/36/36
f 10/37/37 16/38/38 14/39/39 12/40/40
f 15/41/41 9/42/42 11/43/43 13/44/44
f 17/45/45 18/46/46 20/47/47 19/48/48
f 19/49/49 20/50/50 22/51/51 21/52/52
f 21/53/53 22/54/54 24/55/55 23/56/56
f 23/57/57 24/58/58 18/59/59 17/60/60
f 18/61/61 24/62/62 22/63/63 20/64/64
f 23/65/65 17/66/66 19/67/67 21/68/68
f 25/69/69 26/70/70 28/71/71 27/72/72
f 27/73/73 28/74/74 30/75/75 29/76/76
f 29/77/77 30/78/78 32/79/79 31/80/80
f 31/81/81 32/82/82 26/83/83 25/84/84
f 26/85/85 32/86/86 30/87/87 28/88/88
f 31/89/89 25/90/90 27/91/91 29/92/92
f 33/93/93 34/94/94 36/95/95 35/96/96
f 35/97/97 36/98/98 38/99/99 37/100/100
f 37/101/101 38/102/102 40/103/103 39/104/104
f 39/105/105 40/106/106 34/107/107 33/108/108
f 34/109/109 40/110/110 38/111/111 36/112/112
f 39/113/113 33/114/114 35/115/115 37/116/116
